<svg width="1440" height="165" viewBox="0 0 1440 165" fill="none" xmlns="http://www.w3.org/2000/svg">
<path d="M-17 158.404C32.9667 150.944 82.9333 150.944 132.9 158.404C182.867 165.865 232.833 165.865 282.8 158.404C332.767 150.944 382.733 150.944 432.7 158.404C482.667 165.865 532.633 165.865 582.6 158.404C632.567 150.944 682.533 150.944 732.5 158.404C782.467 165.865 832.433 165.865 882.4 158.404C932.367 150.944 982.333 150.944 1032.3 158.404C1082.27 165.865 1132.23 165.865 1182.2 158.404C1232.17 150.944 1282.13 150.944 1332.1 158.404C1382.07 165.865 1432.03 165.865 1482 158.404" stroke="#C8C8C9"/>
<path d="M-17 99.0433C32.9667 91.5826 82.9333 91.5826 132.9 99.0433C182.867 106.504 232.833 106.504 282.8 99.0433C332.767 91.5826 382.733 91.5826 432.7 99.0433C482.667 106.504 532.633 106.504 582.6 99.0433C632.567 91.5826 682.533 91.5826 732.5 99.0433C782.467 106.504 832.433 106.504 882.4 99.0433C932.367 91.5826 982.333 91.5826 1032.3 99.0433C1082.27 106.504 1132.23 106.504 1182.2 99.0433C1232.17 91.5826 1282.13 91.5826 1332.1 99.0433C1382.07 106.504 1432.03 106.504 1482 99.0433" stroke="#C8C8C9"/>
<path d="M-17 44.5478C32.9667 37.0871 82.9333 37.0871 132.9 44.5478C182.867 52.0085 232.833 52.0085 282.8 44.5478C332.767 37.0871 382.733 37.0871 432.7 44.5478C482.667 52.0085 532.633 52.0085 582.6 44.5478C632.567 37.0871 682.533 37.0871 732.5 44.5478C782.467 52.0085 832.433 52.0085 882.4 44.5478C932.367 37.0871 982.333 37.0871 1032.3 44.5478C1082.27 52.0085 1132.23 52.0085 1182.2 44.5478C1232.17 37.0871 1282.13 37.0871 1332.1 44.5478C1382.07 52.0085 1432.03 52.0085 1482 44.5478" stroke="#C8C8C9"/>
<path d="M-17 136.996C32.9667 129.535 82.9333 129.535 132.9 136.996C182.867 144.456 232.833 144.456 282.8 136.996C332.767 129.535 382.733 129.535 432.7 136.996C482.667 144.456 532.633 144.456 582.6 136.996C632.567 129.535 682.533 129.535 732.5 136.996C782.467 144.456 832.433 144.456 882.4 136.996C932.367 129.535 982.333 129.535 1032.3 136.996C1082.27 144.456 1132.23 144.456 1182.2 136.996C1232.17 129.535 1282.13 129.535 1332.1 136.996C1382.07 144.456 1432.03 144.456 1482 136.996" stroke="#C8C8C9"/>
<path d="M-17 77.6343C32.9667 70.1736 82.9333 70.1736 132.9 77.6343C182.867 85.095 232.833 85.095 282.8 77.6343C332.767 70.1736 382.733 70.1736 432.7 77.6343C482.667 85.095 532.633 85.095 582.6 77.6343C632.567 70.1736 682.533 70.1736 732.5 77.6343C782.467 85.095 832.433 85.095 882.4 77.6343C932.367 70.1736 982.333 70.1736 1032.3 77.6343C1082.27 85.095 1132.23 85.095 1182.2 77.6343C1232.17 70.1736 1282.13 70.1736 1332.1 77.6343C1382.07 85.095 1432.03 85.095 1482 77.6343" stroke="#C8C8C9"/>
<path d="M-17 23.1388C32.9667 15.6781 82.9333 15.6781 132.9 23.1388C182.867 30.5995 232.833 30.5995 282.8 23.1388C332.767 15.6781 382.733 15.6781 432.7 23.1388C482.667 30.5995 532.633 30.5995 582.6 23.1388C632.567 15.6781 682.533 15.6781 732.5 23.1388C782.467 30.5995 832.433 30.5995 882.4 23.1388C932.367 15.6781 982.333 15.6781 1032.3 23.1388C1082.27 30.5995 1132.23 30.5995 1182.2 23.1388C1232.17 15.6781 1282.13 15.6781 1332.1 23.1388C1382.07 30.5995 1432.03 30.5995 1482 23.1388" stroke="#C8C8C9"/>
<path d="M-17 120.452C32.9667 112.992 82.9333 112.992 132.9 120.452C182.867 127.913 232.833 127.913 282.8 120.452C332.767 112.992 382.733 112.992 432.7 120.452C482.667 127.913 532.633 127.913 582.6 120.452C632.567 112.992 682.533 112.992 732.5 120.452C782.467 127.913 832.433 127.913 882.4 120.452C932.367 112.992 982.333 112.992 1032.3 120.452C1082.27 127.913 1132.23 127.913 1182.2 120.452C1232.17 112.992 1282.13 112.992 1332.1 120.452C1382.07 127.913 1432.03 127.913 1482 120.452" stroke="#C8C8C9"/>
<path d="M-17 61.091C32.9667 53.6303 82.9333 53.6303 132.9 61.091C182.867 68.5517 232.833 68.5517 282.8 61.091C332.767 53.6303 382.733 53.6303 432.7 61.091C482.667 68.5517 532.633 68.5517 582.6 61.091C632.567 53.6303 682.533 53.6303 732.5 61.091C782.467 68.5517 832.433 68.5517 882.4 61.091C932.367 53.6303 982.333 53.6303 1032.3 61.091C1082.27 68.5517 1132.23 68.5517 1182.2 61.091C1232.17 53.6303 1282.13 53.6303 1332.1 61.091C1382.07 68.5517 1432.03 68.5517 1482 61.091" stroke="#C8C8C9"/>
<path d="M-17 6.59552C32.9667 -0.865174 82.9333 -0.865174 132.9 6.59552C182.867 14.0562 232.833 14.0562 282.8 6.59552C332.767 -0.865174 382.733 -0.865174 432.7 6.59552C482.667 14.0562 532.633 14.0562 582.6 6.59552C632.567 -0.865174 682.533 -0.865174 732.5 6.59552C782.467 14.0562 832.433 14.0562 882.4 6.59552C932.367 -0.865174 982.333 -0.865174 1032.3 6.59552C1082.27 14.0562 1132.23 14.0562 1182.2 6.59552C1232.17 -0.865174 1282.13 -0.865174 1332.1 6.59552C1382.07 14.0562 1432.03 14.0562 1482 6.59552" stroke="#C8C8C9"/>
</svg>
