<svg width="160" height="264" viewBox="0 0 160 264" fill="none" xmlns="http://www.w3.org/2000/svg">
<path d="M104.966 32.0498C104.966 31.0578 105.302 30.2258 105.974 29.5538C106.646 28.8818 107.478 28.5458 108.47 28.5458C109.462 28.5458 110.294 28.8818 110.966 29.5538C111.638 30.2258 111.974 31.0578 111.974 32.0498C111.974 33.0098 111.638 33.8258 110.966 34.4978C110.294 35.1698 109.462 35.5058 108.47 35.5058C107.478 35.5058 106.646 35.1698 105.974 34.4978C105.302 33.8258 104.966 33.0098 104.966 32.0498Z" fill="white"/>
<path d="M35.3615 32.0498C35.3615 31.0578 35.6975 30.2258 36.3695 29.5538C37.0415 28.8818 37.8735 28.5458 38.8655 28.5458C39.8575 28.5458 40.6895 28.8818 41.3615 29.5538C42.0335 30.2258 42.3695 31.0578 42.3695 32.0498C42.3695 33.0098 42.0335 33.8258 41.3615 34.4978C40.6895 35.1698 39.8575 35.5058 38.8655 35.5058C37.8735 35.5058 37.0415 35.1698 36.3695 34.4978C35.6975 33.8258 35.3615 33.0098 35.3615 32.0498Z" fill="white"/>
<path d="M106.664 61.4114C106.664 60.4194 107 59.5874 107.672 58.9154C108.344 58.2434 109.176 57.9074 110.168 57.9074C111.16 57.9074 111.992 58.2434 112.664 58.9154C113.336 59.5874 113.672 60.4194 113.672 61.4114C113.672 62.3714 113.336 63.1874 112.664 63.8594C111.992 64.5314 111.16 64.8674 110.168 64.8674C109.176 64.8674 108.344 64.5314 107.672 63.8594C107 63.1874 106.664 62.3714 106.664 61.4114Z" fill="white"/>
<path d="M106.664 115.94C106.664 114.948 107 114.116 107.672 113.444C108.344 112.772 109.176 112.436 110.168 112.436C111.16 112.436 111.992 112.772 112.664 113.444C113.336 114.116 113.672 114.948 113.672 115.94C113.672 116.9 113.336 117.716 112.664 118.388C111.992 119.06 111.16 119.396 110.168 119.396C109.176 119.396 108.344 119.06 107.672 118.388C107 117.716 106.664 116.9 106.664 115.94Z" fill="white"/>
<path d="M71.9423 117.338C71.9423 116.346 72.2783 115.514 72.9503 114.842C73.6223 114.17 74.4543 113.834 75.4463 113.834C76.4383 113.834 77.2703 114.17 77.9423 114.842C78.6143 115.514 78.9503 116.346 78.9503 117.338C78.9503 118.298 78.6143 119.114 77.9423 119.786C77.2703 120.458 76.4383 120.794 75.4463 120.794C74.4543 120.794 73.6223 120.458 72.9503 119.786C72.2783 119.114 71.9423 118.298 71.9423 117.338Z" fill="white"/>
<path d="M71.9423 89.3747C71.9423 88.3827 72.2783 87.5507 72.9503 86.8787C73.6223 86.2067 74.4543 85.8707 75.4463 85.8707C76.4383 85.8707 77.2703 86.2067 77.9423 86.8787C78.6143 87.5507 78.9503 88.3827 78.9503 89.3747C78.9503 90.3347 78.6143 91.1507 77.9423 91.8227C77.2703 92.4947 76.4383 92.8307 75.4463 92.8307C74.4543 92.8307 73.6223 92.4947 72.9503 91.8227C72.2783 91.1507 71.9423 90.3347 71.9423 89.3747Z" fill="white"/>
<path d="M71.9423 61.4113C71.9423 60.4193 72.2783 59.5873 72.9503 58.9153C73.6223 58.2433 74.4543 57.9073 75.4463 57.9073C76.4383 57.9073 77.2703 58.2433 77.9423 58.9153C78.6143 59.5873 78.9503 60.4193 78.9503 61.4113C78.9503 62.3713 78.6143 63.1873 77.9423 63.8593C77.2703 64.5313 76.4383 64.8673 75.4463 64.8673C74.4543 64.8673 73.6223 64.5313 72.9503 63.8593C72.2783 63.1873 71.9423 62.3713 71.9423 61.4113Z" fill="white"/>
<path d="M71.9426 32.0498C71.9426 31.0578 72.2786 30.2258 72.9506 29.5538C73.6226 28.8818 74.4546 28.5458 75.4466 28.5458C76.4386 28.5458 77.2706 28.8818 77.9426 29.5538C78.6146 30.2258 78.9506 31.0578 78.9506 32.0498C78.9506 33.0098 78.6146 33.8258 77.9426 34.4978C77.2706 35.1698 76.4386 35.5058 75.4466 35.5058C74.4546 35.5058 73.6226 35.1698 72.9506 34.4978C72.2786 33.8258 71.9426 33.0098 71.9426 32.0498Z" fill="white"/>
<path d="M1.40814 32.0498C1.40814 31.0578 1.74414 30.2258 2.41614 29.5538C3.08814 28.8818 3.92014 28.5458 4.91214 28.5458C5.90414 28.5458 6.73614 28.8818 7.40814 29.5538C8.08014 30.2258 8.41614 31.0578 8.41614 32.0498C8.41614 33.0098 8.08014 33.8258 7.40814 34.4978C6.73614 35.1698 5.90414 35.5058 4.91214 35.5058C3.92014 35.5058 3.08814 35.1698 2.41614 34.4978C1.74414 33.8258 1.40814 33.0098 1.40814 32.0498Z" fill="white"/>
<path d="M34.5937 115.94C34.5937 114.948 34.9297 114.116 35.6017 113.444C36.2737 112.772 37.1057 112.436 38.0977 112.436C39.0897 112.436 39.9217 112.772 40.5937 113.444C41.2657 114.116 41.6017 114.948 41.6017 115.94C41.6017 116.9 41.2657 117.716 40.5937 118.388C39.9217 119.06 39.0897 119.396 38.0977 119.396C37.1057 119.396 36.2737 119.06 35.6017 118.388C34.9297 117.716 34.5937 116.9 34.5937 115.94Z" fill="white"/>
<path d="M0.640318 117.338C0.640318 116.346 0.976318 115.514 1.64832 114.842C2.32032 114.17 3.15232 113.834 4.14432 113.834C5.13632 113.834 5.96832 114.17 6.64032 114.842C7.31232 115.514 7.64832 116.346 7.64832 117.338C7.64832 118.298 7.31232 119.114 6.64032 119.786C5.96832 120.458 5.13632 120.794 4.14432 120.794C3.15232 120.794 2.32032 120.458 1.64832 119.786C0.976318 119.114 0.640318 118.298 0.640318 117.338Z" fill="white"/>
<path d="M36.2914 62.8095C36.2914 61.8175 36.6274 60.9855 37.2994 60.3135C37.9714 59.6415 38.8034 59.3055 39.7954 59.3055C40.7874 59.3055 41.6194 59.6415 42.2914 60.3135C42.9634 60.9855 43.2994 61.8175 43.2994 62.8095C43.2994 63.7695 42.9634 64.5855 42.2914 65.2575C41.6194 65.9295 40.7874 66.2655 39.7954 66.2655C38.8034 66.2655 37.9714 65.9295 37.2994 65.2575C36.6274 64.5855 36.2914 63.7695 36.2914 62.8095Z" fill="white"/>
<path d="M2.33807 61.4113C2.33807 60.4193 2.67407 59.5873 3.34607 58.9153C4.01807 58.2433 4.85007 57.9073 5.84207 57.9073C6.83407 57.9073 7.66607 58.2433 8.33807 58.9153C9.01007 59.5873 9.34607 60.4193 9.34607 61.4113C9.34607 62.3713 9.01007 63.1873 8.33807 63.8593C7.66607 64.5313 6.83407 64.8673 5.84207 64.8673C4.85007 64.8673 4.01807 64.5313 3.34607 63.8593C2.67407 63.1873 2.33807 62.3713 2.33807 61.4113Z" fill="white"/>
<path d="M36.2914 89.3747C36.2914 88.3827 36.6274 87.5507 37.2994 86.8787C37.9714 86.2067 38.8034 85.8707 39.7954 85.8707C40.7874 85.8707 41.6194 86.2067 42.2914 86.8787C42.9634 87.5507 43.2994 88.3827 43.2994 89.3747C43.2994 90.3347 42.9634 91.1507 42.2914 91.8227C41.6194 92.4947 40.7874 92.8307 39.7954 92.8307C38.8034 92.8307 37.9714 92.4947 37.2994 91.8227C36.6274 91.1507 36.2914 90.3347 36.2914 89.3747Z" fill="white"/>
<path d="M0.640318 89.3747C0.640318 88.3827 0.976318 87.5507 1.64832 86.8787C2.32032 86.2067 3.15232 85.8707 4.14432 85.8707C5.13632 85.8707 5.96832 86.2067 6.64032 86.8787C7.31232 87.5507 7.64832 88.3827 7.64832 89.3747C7.64832 90.3347 7.31232 91.1507 6.64032 91.8227C5.96832 92.4947 5.13632 92.8307 4.14432 92.8307C3.15232 92.8307 2.32032 92.4947 1.64832 91.8227C0.976318 91.1507 0.640318 90.3347 0.640318 89.3747Z" fill="white"/>
<path d="M2.33807 146.7C2.33807 145.708 2.67407 144.876 3.34607 144.204C4.01807 143.532 4.85007 143.196 5.84207 143.196C6.83407 143.196 7.66607 143.532 8.33807 144.204C9.01007 144.876 9.34607 145.708 9.34607 146.7C9.34607 147.66 9.01007 148.476 8.33807 149.148C7.66607 149.82 6.83407 150.156 5.84207 150.156C4.85007 150.156 4.01807 149.82 3.34607 149.148C2.67407 148.476 2.33807 147.66 2.33807 146.7Z" fill="white"/>
<path d="M106.664 89.3747C106.664 88.3827 107 87.5507 107.672 86.8787C108.344 86.2067 109.176 85.8707 110.168 85.8707C111.16 85.8707 111.992 86.2067 112.664 86.8787C113.336 87.5507 113.672 88.3827 113.672 89.3747C113.672 90.3347 113.336 91.1507 112.664 91.8227C111.992 92.4947 111.16 92.8307 110.168 92.8307C109.176 92.8307 108.344 92.4947 107.672 91.8227C107 91.1507 106.664 90.3347 106.664 89.3747Z" fill="white"/>
<path d="M0.640318 176.061C0.640318 175.069 0.976318 174.237 1.64832 173.565C2.32032 172.893 3.15232 172.557 4.14432 172.557C5.13632 172.557 5.96832 172.893 6.64032 173.565C7.31232 174.237 7.64832 175.069 7.64832 176.061C7.64832 177.021 7.31232 177.837 6.64032 178.509C5.96832 179.181 5.13632 179.517 4.14432 179.517C3.15232 179.517 2.32032 179.181 1.64832 178.509C0.976318 177.837 0.640318 177.021 0.640318 176.061Z" fill="white"/>
<path d="M0.640318 204.025C0.640318 203.033 0.976318 202.201 1.64832 201.529C2.32032 200.857 3.15232 200.521 4.14432 200.521C5.13632 200.521 5.96832 200.857 6.64032 201.529C7.31232 202.201 7.64832 203.033 7.64832 204.025C7.64832 204.985 7.31232 205.801 6.64032 206.473C5.96832 207.145 5.13632 207.481 4.14432 207.481C3.15232 207.481 2.32032 207.145 1.64832 206.473C0.976318 205.801 0.640318 204.985 0.640318 204.025Z" fill="white"/>
<path d="M0.640318 231.988C0.640318 230.996 0.976318 230.164 1.64832 229.492C2.32032 228.82 3.15232 228.484 4.14432 228.484C5.13632 228.484 5.96832 228.82 6.64032 229.492C7.31232 230.164 7.64832 230.996 7.64832 231.988C7.64832 232.948 7.31232 233.764 6.64032 234.436C5.96832 235.108 5.13632 235.444 4.14432 235.444C3.15232 235.444 2.32032 235.108 1.64832 234.436C0.976318 233.764 0.640318 232.948 0.640318 231.988Z" fill="white"/>
<path d="M35.402 146.954C35.402 145.962 35.738 145.13 36.41 144.458C37.082 143.786 37.914 143.45 38.906 143.45C39.898 143.45 40.73 143.786 41.402 144.458C42.074 145.13 42.41 145.962 42.41 146.954C42.41 147.914 42.074 148.73 41.402 149.402C40.73 150.074 39.898 150.41 38.906 150.41C37.914 150.41 37.082 150.074 36.41 149.402C35.738 148.73 35.402 147.914 35.402 146.954Z" fill="white"/>
<path d="M35.402 176.061C35.402 175.069 35.738 174.237 36.41 173.565C37.082 172.893 37.914 172.557 38.906 172.557C39.898 172.557 40.73 172.893 41.402 173.565C42.074 174.237 42.41 175.069 42.41 176.061C42.41 177.021 42.074 177.837 41.402 178.509C40.73 179.181 39.898 179.517 38.906 179.517C37.914 179.517 37.082 179.181 36.41 178.509C35.738 177.837 35.402 177.021 35.402 176.061Z" fill="white"/>
<path d="M35.402 176.061C35.402 175.069 35.738 174.237 36.41 173.565C37.082 172.893 37.914 172.557 38.906 172.557C39.898 172.557 40.73 172.893 41.402 173.565C42.074 174.237 42.41 175.069 42.41 176.061C42.41 177.021 42.074 177.837 41.402 178.509C40.73 179.181 39.898 179.517 38.906 179.517C37.914 179.517 37.082 179.181 36.41 178.509C35.738 177.837 35.402 177.021 35.402 176.061Z" fill="white"/>
<path d="M35.402 204.025C35.402 203.033 35.738 202.201 36.41 201.529C37.082 200.857 37.914 200.521 38.906 200.521C39.898 200.521 40.73 200.857 41.402 201.529C42.074 202.201 42.41 203.033 42.41 204.025C42.41 204.985 42.074 205.801 41.402 206.473C40.73 207.145 39.898 207.481 38.906 207.481C37.914 207.481 37.082 207.145 36.41 206.473C35.738 205.801 35.402 204.985 35.402 204.025Z" fill="white"/>
<path d="M35.402 231.988C35.402 230.996 35.738 230.164 36.41 229.492C37.082 228.82 37.914 228.484 38.906 228.484C39.898 228.484 40.73 228.82 41.402 229.492C42.074 230.164 42.41 230.996 42.41 231.988C42.41 232.948 42.074 233.764 41.402 234.436C40.73 235.108 39.898 235.444 38.906 235.444C37.914 235.444 37.082 235.108 36.41 234.436C35.738 233.764 35.402 232.948 35.402 231.988Z" fill="white"/>
<path d="M71.902 146.954C71.902 145.962 72.238 145.13 72.91 144.458C73.582 143.786 74.414 143.45 75.406 143.45C76.398 143.45 77.23 143.786 77.902 144.458C78.574 145.13 78.91 145.962 78.91 146.954C78.91 147.914 78.574 148.73 77.902 149.402C77.23 150.074 76.398 150.41 75.406 150.41C74.414 150.41 73.582 150.074 72.91 149.402C72.238 148.73 71.902 147.914 71.902 146.954Z" fill="white"/>
<path d="M71.902 176.061C71.902 175.069 72.238 174.237 72.91 173.565C73.582 172.893 74.414 172.557 75.406 172.557C76.398 172.557 77.23 172.893 77.902 173.565C78.574 174.237 78.91 175.069 78.91 176.061C78.91 177.021 78.574 177.837 77.902 178.509C77.23 179.181 76.398 179.517 75.406 179.517C74.414 179.517 73.582 179.181 72.91 178.509C72.238 177.837 71.902 177.021 71.902 176.061Z" fill="white"/>
<path d="M71.902 176.061C71.902 175.069 72.238 174.237 72.91 173.565C73.582 172.893 74.414 172.557 75.406 172.557C76.398 172.557 77.23 172.893 77.902 173.565C78.574 174.237 78.91 175.069 78.91 176.061C78.91 177.021 78.574 177.837 77.902 178.509C77.23 179.181 76.398 179.517 75.406 179.517C74.414 179.517 73.582 179.181 72.91 178.509C72.238 177.837 71.902 177.021 71.902 176.061Z" fill="white"/>
<path d="M71.902 204.025C71.902 203.033 72.238 202.201 72.91 201.529C73.582 200.857 74.414 200.521 75.406 200.521C76.398 200.521 77.23 200.857 77.902 201.529C78.574 202.201 78.91 203.033 78.91 204.025C78.91 204.985 78.574 205.801 77.902 206.473C77.23 207.145 76.398 207.481 75.406 207.481C74.414 207.481 73.582 207.145 72.91 206.473C72.238 205.801 71.902 204.985 71.902 204.025Z" fill="white"/>
<path d="M71.902 231.988C71.902 230.996 72.238 230.164 72.91 229.492C73.582 228.82 74.414 228.484 75.406 228.484C76.398 228.484 77.23 228.82 77.902 229.492C78.574 230.164 78.91 230.996 78.91 231.988C78.91 232.948 78.574 233.764 77.902 234.436C77.23 235.108 76.398 235.444 75.406 235.444C74.414 235.444 73.582 235.108 72.91 234.436C72.238 233.764 71.902 232.948 71.902 231.988Z" fill="white"/>
<path d="M105.896 146.7C105.896 145.708 106.232 144.876 106.904 144.204C107.576 143.532 108.408 143.196 109.4 143.196C110.392 143.196 111.224 143.532 111.896 144.204C112.568 144.876 112.904 145.708 112.904 146.7C112.904 147.66 112.568 148.476 111.896 149.148C111.224 149.82 110.392 150.156 109.4 150.156C108.408 150.156 107.576 149.82 106.904 149.148C106.232 148.476 105.896 147.66 105.896 146.7Z" fill="white"/>
<path d="M106.664 176.061C106.664 175.069 107 174.237 107.672 173.565C108.344 172.893 109.176 172.557 110.168 172.557C111.16 172.557 111.992 172.893 112.664 173.565C113.336 174.237 113.672 175.069 113.672 176.061C113.672 177.021 113.336 177.837 112.664 178.509C111.992 179.181 111.16 179.517 110.168 179.517C109.176 179.517 108.344 179.181 107.672 178.509C107 177.837 106.664 177.021 106.664 176.061Z" fill="white"/>
<path d="M106.664 176.061C106.664 175.069 107 174.237 107.672 173.565C108.344 172.893 109.176 172.557 110.168 172.557C111.16 172.557 111.992 172.893 112.664 173.565C113.336 174.237 113.672 175.069 113.672 176.061C113.672 177.021 113.336 177.837 112.664 178.509C111.992 179.181 111.16 179.517 110.168 179.517C109.176 179.517 108.344 179.181 107.672 178.509C107 177.837 106.664 177.021 106.664 176.061Z" fill="white"/>
<path d="M106.664 204.025C106.664 203.033 107 202.201 107.672 201.529C108.344 200.857 109.176 200.521 110.168 200.521C111.16 200.521 111.992 200.857 112.664 201.529C113.336 202.201 113.672 203.033 113.672 204.025C113.672 204.985 113.336 205.801 112.664 206.473C111.992 207.145 111.16 207.481 110.168 207.481C109.176 207.481 108.344 207.145 107.672 206.473C107 205.801 106.664 204.985 106.664 204.025Z" fill="white"/>
<path d="M106.664 231.988C106.664 230.996 107 230.164 107.672 229.492C108.344 228.82 109.176 228.484 110.168 228.484C111.16 228.484 111.992 228.82 112.664 229.492C113.336 230.164 113.672 230.996 113.672 231.988C113.672 232.948 113.336 233.764 112.664 234.436C111.992 235.108 111.16 235.444 110.168 235.444C109.176 235.444 108.344 235.108 107.672 234.436C107 233.764 106.664 232.948 106.664 231.988Z" fill="white"/>
</svg>
