<svg width="129" height="65" viewBox="0 0 129 65" fill="none" xmlns="http://www.w3.org/2000/svg">
<g filter="url(#filter0_di_1_456)">
<rect x="4.5" y="0.5" width="120" height="56" rx="9.5" stroke="#FAE3B6" shape-rendering="crispEdges"/>
</g>
<path d="M37.016 33.336H42.536V36H33.656V19.248H37.016V33.336ZM50.5756 36.216C49.2956 36.216 48.1436 35.936 47.1196 35.376C46.0956 34.8 45.2876 33.992 44.6956 32.952C44.1196 31.912 43.8316 30.712 43.8316 29.352C43.8316 27.992 44.1276 26.792 44.7196 25.752C45.3276 24.712 46.1516 23.912 47.1916 23.352C48.2316 22.776 49.3916 22.488 50.6716 22.488C51.9516 22.488 53.1116 22.776 54.1516 23.352C55.1916 23.912 56.0076 24.712 56.5996 25.752C57.2076 26.792 57.5116 27.992 57.5116 29.352C57.5116 30.712 57.1996 31.912 56.5756 32.952C55.9676 33.992 55.1356 34.8 54.0796 35.376C53.0396 35.936 51.8716 36.216 50.5756 36.216ZM50.5756 33.288C51.1836 33.288 51.7516 33.144 52.2796 32.856C52.8236 32.552 53.2556 32.104 53.5756 31.512C53.8956 30.92 54.0556 30.2 54.0556 29.352C54.0556 28.088 53.7196 27.12 53.0476 26.448C52.3916 25.76 51.5836 25.416 50.6236 25.416C49.6636 25.416 48.8556 25.76 48.1996 26.448C47.5596 27.12 47.2396 28.088 47.2396 29.352C47.2396 30.616 47.5516 31.592 48.1756 32.28C48.8156 32.952 49.6156 33.288 50.5756 33.288ZM65.1843 22.488C66.1763 22.488 67.0483 22.688 67.8003 23.088C68.5523 23.472 69.1443 23.976 69.5763 24.6V22.704H72.9603V36.096C72.9603 37.328 72.7123 38.424 72.2163 39.384C71.7203 40.36 70.9763 41.128 69.9843 41.688C68.9923 42.264 67.7923 42.552 66.3843 42.552C64.4963 42.552 62.9443 42.112 61.7283 41.232C60.5283 40.352 59.8483 39.152 59.6883 37.632H63.0243C63.2003 38.24 63.5763 38.72 64.1523 39.072C64.7443 39.44 65.4563 39.624 66.2883 39.624C67.2643 39.624 68.0563 39.328 68.6643 38.736C69.2723 38.16 69.5763 37.28 69.5763 36.096V34.032C69.1443 34.656 68.5443 35.176 67.7763 35.592C67.0243 36.008 66.1603 36.216 65.1843 36.216C64.0643 36.216 63.0403 35.928 62.1123 35.352C61.1843 34.776 60.4483 33.968 59.9043 32.928C59.3763 31.872 59.1123 30.664 59.1123 29.304C59.1123 27.96 59.3763 26.768 59.9043 25.728C60.4483 24.688 61.1763 23.888 62.0883 23.328C63.0163 22.768 64.0483 22.488 65.1843 22.488ZM69.5763 29.352C69.5763 28.536 69.4163 27.84 69.0963 27.264C68.7763 26.672 68.3443 26.224 67.8003 25.92C67.2563 25.6 66.6723 25.44 66.0483 25.44C65.4243 25.44 64.8483 25.592 64.3203 25.896C63.7923 26.2 63.3603 26.648 63.0243 27.24C62.7043 27.816 62.5443 28.504 62.5443 29.304C62.5443 30.104 62.7043 30.808 63.0243 31.416C63.3603 32.008 63.7923 32.464 64.3203 32.784C64.8643 33.104 65.4403 33.264 66.0483 33.264C66.6723 33.264 67.2563 33.112 67.8003 32.808C68.3443 32.488 68.7763 32.04 69.0963 31.464C69.4163 30.872 69.5763 30.168 69.5763 29.352ZM77.9459 21.12C77.3539 21.12 76.8579 20.936 76.4579 20.568C76.0739 20.184 75.8819 19.712 75.8819 19.152C75.8819 18.592 76.0739 18.128 76.4579 17.76C76.8579 17.376 77.3539 17.184 77.9459 17.184C78.5379 17.184 79.0259 17.376 79.4099 17.76C79.8099 18.128 80.0099 18.592 80.0099 19.152C80.0099 19.712 79.8099 20.184 79.4099 20.568C79.0259 20.936 78.5379 21.12 77.9459 21.12ZM79.6019 22.704V36H76.2419V22.704H79.6019ZM90.2896 22.512C91.8736 22.512 93.1536 23.016 94.1296 24.024C95.1056 25.016 95.5936 26.408 95.5936 28.2V36H92.2336V28.656C92.2336 27.6 91.9696 26.792 91.4416 26.232C90.9136 25.656 90.1936 25.368 89.2816 25.368C88.3536 25.368 87.6176 25.656 87.0736 26.232C86.5456 26.792 86.2816 27.6 86.2816 28.656V36H82.9216V22.704H86.2816V24.36C86.7296 23.784 87.2976 23.336 87.9856 23.016C88.6896 22.68 89.4576 22.512 90.2896 22.512Z" fill="black"/>
<defs>
<filter id="filter0_di_1_456" x="0" y="0" width="129" height="65" filterUnits="userSpaceOnUse" color-interpolation-filters="sRGB">
<feFlood flood-opacity="0" result="BackgroundImageFix"/>
<feColorMatrix in="SourceAlpha" type="matrix" values="0 0 0 0 0 0 0 0 0 0 0 0 0 0 0 0 0 0 127 0" result="hardAlpha"/>
<feOffset dy="4"/>
<feGaussianBlur stdDeviation="2"/>
<feComposite in2="hardAlpha" operator="out"/>
<feColorMatrix type="matrix" values="0 0 0 0 0 0 0 0 0 0 0 0 0 0 0 0 0 0 0.25 0"/>
<feBlend mode="normal" in2="BackgroundImageFix" result="effect1_dropShadow_1_456"/>
<feBlend mode="normal" in="SourceGraphic" in2="effect1_dropShadow_1_456" result="shape"/>
<feColorMatrix in="SourceAlpha" type="matrix" values="0 0 0 0 0 0 0 0 0 0 0 0 0 0 0 0 0 0 127 0" result="hardAlpha"/>
<feOffset dx="4" dy="4"/>
<feGaussianBlur stdDeviation="2"/>
<feComposite in2="hardAlpha" operator="arithmetic" k2="-1" k3="1"/>
<feColorMatrix type="matrix" values="0 0 0 0 0.949929 0 0 0 0 0.813768 0 0 0 0 0.609527 0 0 0 1 0"/>
<feBlend mode="normal" in2="shape" result="effect2_innerShadow_1_456"/>
</filter>
</defs>
</svg>
