<svg width="179" height="173" viewBox="0 0 179 173" fill="none" xmlns="http://www.w3.org/2000/svg">
<path d="M157.263 117.756C158.255 117.756 159.087 118.092 159.759 118.764C160.431 119.436 160.767 120.268 160.767 121.26C160.767 122.252 160.431 123.084 159.759 123.756C159.087 124.428 158.255 124.764 157.263 124.764C156.303 124.764 155.487 124.428 154.815 123.756C154.143 123.084 153.807 122.252 153.807 121.26C153.807 120.268 154.143 119.436 154.815 118.764C155.487 118.092 156.303 117.756 157.263 117.756Z" fill="#B7ACAC"/>
<path d="M157.263 39.5701C158.255 39.5701 159.087 39.9061 159.759 40.5781C160.431 41.2501 160.767 42.0821 160.767 43.0741C160.767 44.0661 160.431 44.8981 159.759 45.5701C159.087 46.2421 158.255 46.5781 157.263 46.5781C156.303 46.5781 155.487 46.2421 154.815 45.5701C154.143 44.8981 153.807 44.0661 153.807 43.0741C153.807 42.0821 154.143 41.2501 154.815 40.5781C155.487 39.9061 156.303 39.5701 157.263 39.5701Z" fill="#B7ACAC"/>
<path d="M137.355 119.663C138.347 119.663 139.179 119.999 139.851 120.671C140.523 121.343 140.859 122.175 140.859 123.167C140.859 124.159 140.523 124.991 139.851 125.663C139.179 126.335 138.347 126.671 137.355 126.671C136.395 126.671 135.579 126.335 134.907 125.663C134.235 124.991 133.899 124.159 133.899 123.167C133.899 122.175 134.235 121.343 134.907 120.671C135.579 119.999 136.395 119.663 137.355 119.663Z" fill="#B7ACAC"/>
<path d="M100.383 119.663C101.375 119.663 102.207 119.999 102.879 120.671C103.551 121.343 103.887 122.175 103.887 123.167C103.887 124.159 103.551 124.991 102.879 125.663C102.207 126.335 101.375 126.671 100.383 126.671C99.4231 126.671 98.6071 126.335 97.9351 125.663C97.2631 124.991 96.9271 124.159 96.9271 123.167C96.9271 122.175 97.2631 121.343 97.9351 120.671C98.6071 119.999 99.4231 119.663 100.383 119.663Z" fill="#B7ACAC"/>
<path d="M99.4351 80.6616C100.427 80.6616 101.259 80.9976 101.931 81.6696C102.603 82.3416 102.939 83.1736 102.939 84.1656C102.939 85.1576 102.603 85.9896 101.931 86.6616C101.259 87.3336 100.427 87.6696 99.4351 87.6696C98.4751 87.6696 97.6591 87.3336 96.9871 86.6616C96.3151 85.9896 95.9791 85.1576 95.9791 84.1656C95.9791 83.1736 96.3151 82.3416 96.9871 81.6696C97.6591 80.9976 98.4751 80.6616 99.4351 80.6616Z" fill="#B7ACAC"/>
<path d="M118.395 80.6616C119.387 80.6616 120.219 80.9976 120.891 81.6696C121.563 82.3416 121.899 83.1736 121.899 84.1656C121.899 85.1576 121.563 85.9896 120.891 86.6616C120.219 87.3336 119.387 87.6696 118.395 87.6696C117.435 87.6696 116.619 87.3336 115.947 86.6616C115.275 85.9896 114.939 85.1576 114.939 84.1656C114.939 83.1736 115.275 82.3416 115.947 81.6696C116.619 80.9976 117.435 80.6616 118.395 80.6616Z" fill="#B7ACAC"/>
<path d="M137.355 80.6616C138.347 80.6616 139.179 80.9976 139.851 81.6696C140.523 82.3416 140.859 83.1736 140.859 84.1656C140.859 85.1576 140.523 85.9896 139.851 86.6616C139.179 87.3336 138.347 87.6696 137.355 87.6696C136.395 87.6696 135.579 87.3336 134.907 86.6616C134.235 85.9896 133.899 85.1576 133.899 84.1656C133.899 83.1736 134.235 82.3416 134.907 81.6696C135.579 80.9976 136.395 80.6616 137.355 80.6616Z" fill="#B7ACAC"/>
<path d="M157.263 80.6616C158.255 80.6616 159.087 80.9976 159.759 81.6696C160.431 82.3416 160.767 83.1736 160.767 84.1656C160.767 85.1576 160.431 85.9896 159.759 86.6616C159.087 87.3336 158.255 87.6696 157.263 87.6696C156.303 87.6696 155.487 87.3336 154.815 86.6616C154.143 85.9896 153.807 85.1576 153.807 84.1656C153.807 83.1736 154.143 82.3416 154.815 81.6696C155.487 80.9976 156.303 80.6616 157.263 80.6616Z" fill="#B7ACAC"/>
<path d="M157.263 1.43127C158.255 1.43127 159.087 1.76727 159.759 2.43927C160.431 3.11127 160.767 3.94327 160.767 4.93527C160.767 5.92727 160.431 6.75927 159.759 7.43127C159.087 8.10327 158.255 8.43927 157.263 8.43927C156.303 8.43927 155.487 8.10327 154.815 7.43127C154.143 6.75927 153.807 5.92727 153.807 4.93527C153.807 3.94327 154.143 3.11127 154.815 2.43927C155.487 1.76727 156.303 1.43127 157.263 1.43127Z" fill="#B7ACAC"/>
<path d="M100.383 38.7081C101.375 38.7081 102.207 39.0441 102.879 39.7161C103.551 40.3881 103.887 41.2201 103.887 42.2121C103.887 43.2041 103.551 44.0361 102.879 44.7081C102.207 45.3801 101.375 45.7161 100.383 45.7161C99.4231 45.7161 98.6071 45.3801 97.9351 44.7081C97.2631 44.0361 96.9271 43.2041 96.9271 42.2121C96.9271 41.2201 97.2631 40.3881 97.9351 39.7161C98.6071 39.0441 99.4231 38.7081 100.383 38.7081Z" fill="#B7ACAC"/>
<path d="M99.4351 0.568785C100.427 0.568785 101.259 0.904785 101.931 1.57679C102.603 2.24879 102.939 3.08079 102.939 4.07279C102.939 5.06479 102.603 5.89679 101.931 6.56879C101.259 7.24079 100.427 7.57679 99.4351 7.57679C98.4751 7.57679 97.6591 7.24079 96.9871 6.56879C96.3151 5.89679 95.9791 5.06479 95.9791 4.07279C95.9791 3.08079 96.3151 2.24879 96.9871 1.57679C97.6591 0.904785 98.4751 0.568785 99.4351 0.568785Z" fill="#B7ACAC"/>
<path d="M136.407 40.6151C137.399 40.6151 138.231 40.9511 138.903 41.6231C139.575 42.2951 139.911 43.1271 139.911 44.1191C139.911 45.1111 139.575 45.9431 138.903 46.6151C138.231 47.2871 137.399 47.6231 136.407 47.6231C135.447 47.6231 134.631 47.2871 133.959 46.6151C133.287 45.9431 132.951 45.1111 132.951 44.1191C132.951 43.1271 133.287 42.2951 133.959 41.6231C134.631 40.9511 135.447 40.6151 136.407 40.6151Z" fill="#B7ACAC"/>
<path d="M137.355 2.47577C138.347 2.47577 139.179 2.81177 139.851 3.48377C140.523 4.15577 140.859 4.98777 140.859 5.97977C140.859 6.97177 140.523 7.80377 139.851 8.47577C139.179 9.14777 138.347 9.48377 137.355 9.48377C136.395 9.48377 135.579 9.14777 134.907 8.47577C134.235 7.80377 133.899 6.97177 133.899 5.97977C133.899 4.98777 134.235 4.15577 134.907 3.48377C135.579 2.81177 136.395 2.47577 137.355 2.47577Z" fill="#B7ACAC"/>
<path d="M118.395 40.6151C119.387 40.6151 120.219 40.9511 120.891 41.6231C121.563 42.2951 121.899 43.1271 121.899 44.1191C121.899 45.1111 121.563 45.9431 120.891 46.6151C120.219 47.2871 119.387 47.6231 118.395 47.6231C117.435 47.6231 116.619 47.2871 115.947 46.6151C115.275 45.9431 114.939 45.1111 114.939 44.1191C114.939 43.1271 115.275 42.2951 115.947 41.6231C116.619 40.9511 117.435 40.6151 118.395 40.6151Z" fill="#B7ACAC"/>
<path d="M118.395 0.568785C119.387 0.568785 120.219 0.904785 120.891 1.57679C121.563 2.24879 121.899 3.08079 121.899 4.07279C121.899 5.06479 121.563 5.89679 120.891 6.56879C120.219 7.24079 119.387 7.57679 118.395 7.57679C117.435 7.57679 116.619 7.24079 115.947 6.56879C115.275 5.89679 114.939 5.06479 114.939 4.07279C114.939 3.08079 115.275 2.24879 115.947 1.57679C116.619 0.904785 117.435 0.568785 118.395 0.568785Z" fill="#B7ACAC"/>
<path d="M79.5271 2.47577C80.5191 2.47577 81.3511 2.81177 82.0231 3.48377C82.6951 4.15577 83.0311 4.98777 83.0311 5.97977C83.0311 6.97177 82.6951 7.80377 82.0231 8.47577C81.3511 9.14777 80.5191 9.48377 79.5271 9.48377C78.5671 9.48377 77.7511 9.14777 77.0791 8.47577C76.4071 7.80377 76.0711 6.97177 76.0711 5.97977C76.0711 4.98777 76.4071 4.15577 77.0791 3.48377C77.7511 2.81177 78.5671 2.47577 79.5271 2.47577Z" fill="#B7ACAC"/>
<path d="M118.395 119.664C119.387 119.664 120.219 120 120.891 120.672C121.563 121.344 121.899 122.176 121.899 123.168C121.899 124.16 121.563 124.992 120.891 125.664C120.219 126.336 119.387 126.672 118.395 126.672C117.435 126.672 116.619 126.336 115.947 125.664C115.275 124.992 114.939 124.16 114.939 123.168C114.939 122.176 115.275 121.344 115.947 120.672C116.619 120 117.435 119.664 118.395 119.664Z" fill="#B7ACAC"/>
<path d="M59.6189 0.568785C60.6109 0.568785 61.4429 0.904785 62.1149 1.57679C62.7869 2.24879 63.1229 3.08079 63.1229 4.07279C63.1229 5.06479 62.7869 5.89679 62.1149 6.56879C61.4429 7.24079 60.6109 7.57679 59.6189 7.57679C58.6589 7.57679 57.8429 7.24079 57.1709 6.56879C56.4989 5.89679 56.1629 5.06479 56.1629 4.07279C56.1629 3.08079 56.4989 2.24879 57.1709 1.57679C57.8429 0.904785 58.6589 0.568785 59.6189 0.568785Z" fill="#B7ACAC"/>
<path d="M40.6589 0.568785C41.6509 0.568785 42.4829 0.904785 43.1549 1.57679C43.8269 2.24879 44.1629 3.08079 44.1629 4.07279C44.1629 5.06479 43.8269 5.89679 43.1549 6.56879C42.4829 7.24079 41.6509 7.57679 40.6589 7.57679C39.6989 7.57679 38.8829 7.24079 38.2109 6.56879C37.5389 5.89679 37.2029 5.06479 37.2029 4.07279C37.2029 3.08079 37.5389 2.24879 38.2109 1.57679C38.8829 0.904785 39.6989 0.568785 40.6589 0.568785Z" fill="#B7ACAC"/>
<path d="M21.699 0.568785C22.691 0.568785 23.523 0.904785 24.195 1.57679C24.867 2.24879 25.203 3.08079 25.203 4.07279C25.203 5.06479 24.867 5.89679 24.195 6.56879C23.523 7.24079 22.691 7.57679 21.699 7.57679C20.739 7.57679 19.923 7.24079 19.251 6.56879C18.579 5.89679 18.243 5.06479 18.243 4.07279C18.243 3.08079 18.579 2.24879 19.251 1.57679C19.923 0.904785 20.739 0.568785 21.699 0.568785Z" fill="#B7ACAC"/>
<path d="M79.3547 39.616C80.3468 39.616 81.1788 39.952 81.8507 40.624C82.5228 41.296 82.8588 42.128 82.8588 43.12C82.8588 44.112 82.5228 44.944 81.8507 45.616C81.1788 46.288 80.3468 46.624 79.3547 46.624C78.3947 46.624 77.5787 46.288 76.9067 45.616C76.2348 44.944 75.8988 44.112 75.8988 43.12C75.8988 42.128 76.2348 41.296 76.9067 40.624C77.5787 39.952 78.3947 39.616 79.3547 39.616Z" fill="#B7ACAC"/>
<path d="M59.6192 39.616C60.6112 39.616 61.4432 39.952 62.1152 40.624C62.7872 41.296 63.1232 42.128 63.1232 43.12C63.1232 44.112 62.7872 44.944 62.1152 45.616C61.4432 46.288 60.6112 46.624 59.6192 46.624C58.6592 46.624 57.8432 46.288 57.1712 45.616C56.4992 44.944 56.1632 44.112 56.1632 43.12C56.1632 42.128 56.4992 41.296 57.1712 40.624C57.8432 39.952 58.6592 39.616 59.6192 39.616Z" fill="#B7ACAC"/>
<path d="M59.6192 39.616C60.6112 39.616 61.4432 39.952 62.1152 40.624C62.7872 41.296 63.1232 42.128 63.1232 43.12C63.1232 44.112 62.7872 44.944 62.1152 45.616C61.4432 46.288 60.6112 46.624 59.6192 46.624C58.6592 46.624 57.8432 46.288 57.1712 45.616C56.4992 44.944 56.1632 44.112 56.1632 43.12C56.1632 42.128 56.4992 41.296 57.1712 40.624C57.8432 39.952 58.6592 39.616 59.6192 39.616Z" fill="#B7ACAC"/>
<path d="M40.6589 39.616C41.6509 39.616 42.4829 39.952 43.1549 40.624C43.8269 41.296 44.1629 42.128 44.1629 43.12C44.1629 44.112 43.8269 44.944 43.1549 45.616C42.4829 46.288 41.6509 46.624 40.6589 46.624C39.6989 46.624 38.8829 46.288 38.2109 45.616C37.5389 44.944 37.2029 44.112 37.2029 43.12C37.2029 42.128 37.5389 41.296 38.2109 40.624C38.8829 39.952 39.6989 39.616 40.6589 39.616Z" fill="#B7ACAC"/>
<path d="M21.699 39.616C22.691 39.616 23.523 39.952 24.195 40.624C24.867 41.296 25.203 42.128 25.203 43.12C25.203 44.112 24.867 44.944 24.195 45.616C23.523 46.288 22.691 46.624 21.699 46.624C20.739 46.624 19.923 46.288 19.251 45.616C18.579 44.944 18.243 44.112 18.243 43.12C18.243 42.128 18.579 41.296 19.251 40.624C19.923 39.952 20.739 39.616 21.699 39.616Z" fill="#B7ACAC"/>
<path d="M79.3547 80.616C80.3468 80.616 81.1788 80.952 81.8507 81.624C82.5228 82.296 82.8588 83.128 82.8588 84.12C82.8588 85.112 82.5228 85.944 81.8507 86.616C81.1788 87.288 80.3468 87.624 79.3547 87.624C78.3947 87.624 77.5787 87.288 76.9067 86.616C76.2348 85.944 75.8988 85.112 75.8988 84.12C75.8988 83.128 76.2348 82.296 76.9067 81.624C77.5787 80.952 78.3947 80.616 79.3547 80.616Z" fill="#B7ACAC"/>
<path d="M59.6192 80.616C60.6112 80.616 61.4432 80.952 62.1152 81.624C62.7872 82.296 63.1232 83.128 63.1232 84.12C63.1232 85.112 62.7872 85.944 62.1152 86.616C61.4432 87.288 60.6112 87.624 59.6192 87.624C58.6592 87.624 57.8432 87.288 57.1712 86.616C56.4992 85.944 56.1632 85.112 56.1632 84.12C56.1632 83.128 56.4992 82.296 57.1712 81.624C57.8432 80.952 58.6592 80.616 59.6192 80.616Z" fill="#B7ACAC"/>
<path d="M59.6192 80.616C60.6112 80.616 61.4432 80.952 62.1152 81.624C62.7872 82.296 63.1232 83.128 63.1232 84.12C63.1232 85.112 62.7872 85.944 62.1152 86.616C61.4432 87.288 60.6112 87.624 59.6192 87.624C58.6592 87.624 57.8432 87.288 57.1712 86.616C56.4992 85.944 56.1632 85.112 56.1632 84.12C56.1632 83.128 56.4992 82.296 57.1712 81.624C57.8432 80.952 58.6592 80.616 59.6192 80.616Z" fill="#B7ACAC"/>
<path d="M40.6589 80.616C41.6509 80.616 42.4829 80.952 43.1549 81.624C43.8269 82.296 44.1629 83.128 44.1629 84.12C44.1629 85.112 43.8269 85.944 43.1549 86.616C42.4829 87.288 41.6509 87.624 40.6589 87.624C39.6989 87.624 38.8829 87.288 38.2109 86.616C37.5389 85.944 37.2029 85.112 37.2029 84.12C37.2029 83.128 37.5389 82.296 38.2109 81.624C38.8829 80.952 39.6989 80.616 40.6589 80.616Z" fill="#B7ACAC"/>
<path d="M21.699 80.616C22.691 80.616 23.523 80.952 24.195 81.624C24.867 82.296 25.203 83.128 25.203 84.12C25.203 85.112 24.867 85.944 24.195 86.616C23.523 87.288 22.691 87.624 21.699 87.624C20.739 87.624 19.923 87.288 19.251 86.616C18.579 85.944 18.243 85.112 18.243 84.12C18.243 83.128 18.579 82.296 19.251 81.624C19.923 80.952 20.739 80.616 21.699 80.616Z" fill="#B7ACAC"/>
<path d="M79.5271 118.801C80.5191 118.801 81.3511 119.137 82.0231 119.809C82.6951 120.481 83.0311 121.313 83.0311 122.305C83.0311 123.297 82.6951 124.129 82.0231 124.801C81.3511 125.473 80.5191 125.809 79.5271 125.809C78.5671 125.809 77.7511 125.473 77.0791 124.801C76.4071 124.129 76.0711 123.297 76.0711 122.305C76.0711 121.313 76.4071 120.481 77.0791 119.809C77.7511 119.137 78.5671 118.801 79.5271 118.801Z" fill="#B7ACAC"/>
<path d="M59.6189 119.664C60.6109 119.664 61.4429 120 62.1149 120.672C62.7869 121.344 63.1229 122.176 63.1229 123.168C63.1229 124.16 62.7869 124.992 62.1149 125.664C61.4429 126.336 60.6109 126.672 59.6189 126.672C58.6589 126.672 57.8429 126.336 57.1709 125.664C56.4989 124.992 56.1629 124.16 56.1629 123.168C56.1629 122.176 56.4989 121.344 57.1709 120.672C57.8429 120 58.6589 119.664 59.6189 119.664Z" fill="#B7ACAC"/>
<path d="M59.6189 119.664C60.6109 119.664 61.4429 120 62.1149 120.672C62.7869 121.344 63.1229 122.176 63.1229 123.168C63.1229 124.16 62.7869 124.992 62.1149 125.664C61.4429 126.336 60.6109 126.672 59.6189 126.672C58.6589 126.672 57.8429 126.336 57.1709 125.664C56.4989 124.992 56.1629 124.16 56.1629 123.168C56.1629 122.176 56.4989 121.344 57.1709 120.672C57.8429 120 58.6589 119.664 59.6189 119.664Z" fill="#B7ACAC"/>
<path d="M40.6589 119.664C41.6509 119.664 42.4829 120 43.1549 120.672C43.8269 121.344 44.1629 122.176 44.1629 123.168C44.1629 124.16 43.8269 124.992 43.1549 125.664C42.4829 126.336 41.6509 126.672 40.6589 126.672C39.6989 126.672 38.8829 126.336 38.2109 125.664C37.5389 124.992 37.2029 124.16 37.2029 123.168C37.2029 122.176 37.5389 121.344 38.2109 120.672C38.8829 120 39.6989 119.664 40.6589 119.664Z" fill="#B7ACAC"/>
<path d="M21.699 119.664C22.691 119.664 23.523 120 24.195 120.672C24.867 121.344 25.203 122.176 25.203 123.168C25.203 124.16 24.867 124.992 24.195 125.664C23.523 126.336 22.691 126.672 21.699 126.672C20.739 126.672 19.923 126.336 19.251 125.664C18.579 124.992 18.243 124.16 18.243 123.168C18.243 122.176 18.579 121.344 19.251 120.672C19.923 120 20.739 119.664 21.699 119.664Z" fill="#B7ACAC"/>
</svg>
