<svg width="805" height="292" viewBox="0 0 805 292" fill="none" xmlns="http://www.w3.org/2000/svg">
<g filter="url(#filter0_dif_1_625)">
<rect x="4" y="4" width="793" height="280" rx="20" fill="url(#paint0_linear_1_625)" shape-rendering="crispEdges"/>
</g>
<path d="M589.568 130V123.536H597.12V119.312H577.408L577.344 113.744L592 90L597.76 93.2L585.088 113.232H597.12V99.728H604.48V113.232L609.536 113.168V119.312H604.48V123.536H609.28V130H589.568ZM622.647 106.512C623.884 105.787 625.121 105.253 626.359 104.912C627.639 104.571 628.919 104.4 630.199 104.4C632.503 104.4 634.593 104.912 636.471 105.936C638.391 106.917 639.927 108.389 641.079 110.352C642.231 112.272 642.807 114.597 642.807 117.328C642.807 121.851 641.399 125.307 638.583 127.696C635.809 130.043 631.991 131.216 627.127 131.216C624.737 131.216 622.369 130.789 620.023 129.936C617.719 129.04 615.628 127.76 613.751 126.096L618.295 121.296C619.745 122.491 621.26 123.408 622.839 124.048C624.46 124.688 625.996 125.008 627.447 125.008C630.135 125.008 632.161 124.368 633.527 123.088C634.892 121.765 635.575 119.931 635.575 117.584C635.575 116.048 635.233 114.747 634.551 113.68C633.868 112.571 632.951 111.739 631.799 111.184C630.647 110.629 629.409 110.352 628.087 110.352C626.764 110.352 625.399 110.672 623.991 111.312C622.583 111.909 621.281 112.869 620.087 114.192L615.671 112.144V92.304H639.671V98.768H622.647V106.512ZM664.33 91.024C666.634 91.024 668.746 91.344 670.666 91.984C672.628 92.624 674.356 93.712 675.85 95.248C677.343 96.7413 678.495 98.7893 679.306 101.392C680.116 103.995 680.522 107.259 680.522 111.184C680.522 115.067 680.116 118.309 679.306 120.912C678.495 123.515 677.343 125.584 675.85 127.12C674.356 128.613 672.628 129.68 670.666 130.32C668.746 130.96 666.634 131.28 664.33 131.28C662.026 131.28 659.892 130.96 657.93 130.32C655.967 129.68 654.239 128.613 652.746 127.12C651.295 125.584 650.164 123.515 649.354 120.912C648.543 118.309 648.138 115.067 648.138 111.184C648.138 107.259 648.543 103.995 649.354 101.392C650.164 98.7893 651.295 96.7413 652.746 95.248C654.239 93.712 655.967 92.624 657.93 91.984C659.892 91.344 662.026 91.024 664.33 91.024ZM664.33 97.68C663.22 97.68 662.154 97.8507 661.13 98.192C660.148 98.4907 659.252 99.1093 658.442 100.048C657.674 100.944 657.055 102.288 656.586 104.08C656.159 105.872 655.946 108.24 655.946 111.184C655.946 114.085 656.159 116.432 656.586 118.224C657.055 119.973 657.674 121.317 658.442 122.256C659.252 123.195 660.148 123.835 661.13 124.176C662.154 124.475 663.22 124.624 664.33 124.624C665.439 124.624 666.484 124.475 667.466 124.176C668.49 123.835 669.407 123.195 670.218 122.256C671.028 121.317 671.647 119.973 672.074 118.224C672.543 116.432 672.778 114.085 672.778 111.184C672.778 108.24 672.543 105.872 672.074 104.08C671.647 102.288 671.028 100.944 670.218 100.048C669.407 99.1093 668.49 98.4907 667.466 98.192C666.484 97.8507 665.439 97.68 664.33 97.68ZM703.142 91.024C705.446 91.024 707.558 91.344 709.478 91.984C711.441 92.624 713.169 93.712 714.662 95.248C716.155 96.7413 717.307 98.7893 718.118 101.392C718.929 103.995 719.334 107.259 719.334 111.184C719.334 115.067 718.929 118.309 718.118 120.912C717.307 123.515 716.155 125.584 714.662 127.12C713.169 128.613 711.441 129.68 709.478 130.32C707.558 130.96 705.446 131.28 703.142 131.28C700.838 131.28 698.705 130.96 696.742 130.32C694.779 129.68 693.051 128.613 691.558 127.12C690.107 125.584 688.977 123.515 688.166 120.912C687.355 118.309 686.95 115.067 686.95 111.184C686.95 107.259 687.355 103.995 688.166 101.392C688.977 98.7893 690.107 96.7413 691.558 95.248C693.051 93.712 694.779 92.624 696.742 91.984C698.705 91.344 700.838 91.024 703.142 91.024ZM703.142 97.68C702.033 97.68 700.966 97.8507 699.942 98.192C698.961 98.4907 698.065 99.1093 697.254 100.048C696.486 100.944 695.867 102.288 695.398 104.08C694.971 105.872 694.758 108.24 694.758 111.184C694.758 114.085 694.971 116.432 695.398 118.224C695.867 119.973 696.486 121.317 697.254 122.256C698.065 123.195 698.961 123.835 699.942 124.176C700.966 124.475 702.033 124.624 703.142 124.624C704.251 124.624 705.297 124.475 706.278 124.176C707.302 123.835 708.219 123.195 709.03 122.256C709.841 121.317 710.459 119.973 710.886 118.224C711.355 116.432 711.59 114.085 711.59 111.184C711.59 108.24 711.355 105.872 710.886 104.08C710.459 102.288 709.841 100.944 709.03 100.048C708.219 99.1093 707.302 98.4907 706.278 98.192C705.297 97.8507 704.251 97.68 703.142 97.68ZM735.043 98H741.763V107.344H751.043V113.424H741.763V122.704H735.043V113.424H725.763V107.344H735.043V98Z" fill="black"/>
<path d="M582.516 192.004C583.561 192.191 584.448 192.741 585.176 193.656C585.904 194.571 586.268 195.607 586.268 196.764C586.268 197.753 586.007 198.649 585.484 199.452C584.98 200.236 584.243 200.861 583.272 201.328C582.301 201.776 581.172 202 579.884 202H572.1V182.54H579.52C580.845 182.54 581.984 182.764 582.936 183.212C583.888 183.66 584.607 184.267 585.092 185.032C585.577 185.779 585.82 186.619 585.82 187.552C585.82 188.672 585.521 189.605 584.924 190.352C584.327 191.099 583.524 191.649 582.516 192.004ZM575.292 190.716H579.24C580.285 190.716 581.097 190.483 581.676 190.016C582.273 189.531 582.572 188.84 582.572 187.944C582.572 187.067 582.273 186.385 581.676 185.9C581.097 185.396 580.285 185.144 579.24 185.144H575.292V190.716ZM579.604 199.396C580.687 199.396 581.536 199.135 582.152 198.612C582.768 198.089 583.076 197.361 583.076 196.428C583.076 195.476 582.749 194.72 582.096 194.16C581.443 193.6 580.575 193.32 579.492 193.32H575.292V199.396H579.604ZM603.877 193.908C603.877 194.487 603.839 195.009 603.765 195.476H591.977C592.07 196.708 592.527 197.697 593.349 198.444C594.17 199.191 595.178 199.564 596.373 199.564C598.09 199.564 599.303 198.845 600.013 197.408H603.457C602.99 198.827 602.141 199.993 600.909 200.908C599.695 201.804 598.183 202.252 596.373 202.252C594.898 202.252 593.573 201.925 592.397 201.272C591.239 200.6 590.325 199.667 589.653 198.472C588.999 197.259 588.673 195.859 588.673 194.272C588.673 192.685 588.99 191.295 589.625 190.1C590.278 188.887 591.183 187.953 592.341 187.3C593.517 186.647 594.861 186.32 596.373 186.32C597.829 186.32 599.126 186.637 600.265 187.272C601.403 187.907 602.29 188.803 602.925 189.96C603.559 191.099 603.877 192.415 603.877 193.908ZM600.545 192.9C600.526 191.724 600.106 190.781 599.285 190.072C598.463 189.363 597.446 189.008 596.233 189.008C595.131 189.008 594.189 189.363 593.405 190.072C592.621 190.763 592.154 191.705 592.005 192.9H600.545ZM612.618 202.252C611.405 202.252 610.313 202.037 609.342 201.608C608.39 201.16 607.634 200.563 607.074 199.816C606.514 199.051 606.215 198.201 606.178 197.268H609.482C609.538 197.921 609.846 198.472 610.406 198.92C610.985 199.349 611.703 199.564 612.562 199.564C613.458 199.564 614.149 199.396 614.634 199.06C615.138 198.705 615.39 198.257 615.39 197.716C615.39 197.137 615.11 196.708 614.55 196.428C614.009 196.148 613.141 195.84 611.946 195.504C610.789 195.187 609.846 194.879 609.118 194.58C608.39 194.281 607.755 193.824 607.214 193.208C606.691 192.592 606.43 191.78 606.43 190.772C606.43 189.951 606.673 189.204 607.158 188.532C607.643 187.841 608.334 187.3 609.23 186.908C610.145 186.516 611.19 186.32 612.366 186.32C614.121 186.32 615.53 186.768 616.594 187.664C617.677 188.541 618.255 189.745 618.33 191.276H615.138C615.082 190.585 614.802 190.035 614.298 189.624C613.794 189.213 613.113 189.008 612.254 189.008C611.414 189.008 610.77 189.167 610.322 189.484C609.874 189.801 609.65 190.221 609.65 190.744C609.65 191.155 609.799 191.5 610.098 191.78C610.397 192.06 610.761 192.284 611.19 192.452C611.619 192.601 612.254 192.797 613.094 193.04C614.214 193.339 615.129 193.647 615.838 193.964C616.566 194.263 617.191 194.711 617.714 195.308C618.237 195.905 618.507 196.699 618.526 197.688C618.526 198.565 618.283 199.349 617.798 200.04C617.313 200.731 616.622 201.272 615.726 201.664C614.849 202.056 613.813 202.252 612.618 202.252ZM625.699 189.176V197.716C625.699 198.295 625.83 198.715 626.091 198.976C626.371 199.219 626.838 199.34 627.491 199.34H629.451V202H626.931C625.494 202 624.392 201.664 623.627 200.992C622.862 200.32 622.479 199.228 622.479 197.716V189.176H620.659V186.572H622.479V182.736H625.699V186.572H629.451V189.176H625.699ZM649.774 202L645.294 194.216H642.858V202H639.666V182.54H646.386C647.88 182.54 649.14 182.801 650.166 183.324C651.212 183.847 651.986 184.547 652.49 185.424C653.013 186.301 653.274 187.281 653.274 188.364C653.274 189.633 652.901 190.791 652.154 191.836C651.426 192.863 650.297 193.563 648.766 193.936L653.582 202H649.774ZM642.858 191.668H646.386C647.581 191.668 648.477 191.369 649.074 190.772C649.69 190.175 649.998 189.372 649.998 188.364C649.998 187.356 649.7 186.572 649.102 186.012C648.505 185.433 647.6 185.144 646.386 185.144H642.858V191.668ZM671.498 193.908C671.498 194.487 671.46 195.009 671.386 195.476H659.598C659.691 196.708 660.148 197.697 660.97 198.444C661.791 199.191 662.799 199.564 663.994 199.564C665.711 199.564 666.924 198.845 667.634 197.408H671.078C670.611 198.827 669.762 199.993 668.53 200.908C667.316 201.804 665.804 202.252 663.994 202.252C662.519 202.252 661.194 201.925 660.018 201.272C658.86 200.6 657.946 199.667 657.274 198.472C656.62 197.259 656.294 195.859 656.294 194.272C656.294 192.685 656.611 191.295 657.246 190.1C657.899 188.887 658.804 187.953 659.962 187.3C661.138 186.647 662.482 186.32 663.994 186.32C665.45 186.32 666.747 186.637 667.886 187.272C669.024 187.907 669.911 188.803 670.546 189.96C671.18 191.099 671.498 192.415 671.498 193.908ZM668.166 192.9C668.147 191.724 667.727 190.781 666.906 190.072C666.084 189.363 665.067 189.008 663.854 189.008C662.752 189.008 661.81 189.363 661.026 190.072C660.242 190.763 659.775 191.705 659.626 192.9H668.166ZM680.603 199.144L684.971 186.572H688.359L682.479 202H678.671L672.819 186.572H676.235L680.603 199.144ZM692.396 184.528C691.817 184.528 691.332 184.332 690.94 183.94C690.548 183.548 690.352 183.063 690.352 182.484C690.352 181.905 690.548 181.42 690.94 181.028C691.332 180.636 691.817 180.44 692.396 180.44C692.956 180.44 693.432 180.636 693.824 181.028C694.216 181.42 694.412 181.905 694.412 182.484C694.412 183.063 694.216 183.548 693.824 183.94C693.432 184.332 692.956 184.528 692.396 184.528ZM693.964 186.572V202H690.772V186.572H693.964ZM712.295 193.908C712.295 194.487 712.257 195.009 712.183 195.476H700.395C700.488 196.708 700.945 197.697 701.767 198.444C702.588 199.191 703.596 199.564 704.791 199.564C706.508 199.564 707.721 198.845 708.431 197.408H711.875C711.408 198.827 710.559 199.993 709.327 200.908C708.113 201.804 706.601 202.252 704.791 202.252C703.316 202.252 701.991 201.925 700.815 201.272C699.657 200.6 698.743 199.667 698.071 198.472C697.417 197.259 697.091 195.859 697.091 194.272C697.091 192.685 697.408 191.295 698.043 190.1C698.696 188.887 699.601 187.953 700.759 187.3C701.935 186.647 703.279 186.32 704.791 186.32C706.247 186.32 707.544 186.637 708.683 187.272C709.821 187.907 710.708 188.803 711.343 189.96C711.977 191.099 712.295 192.415 712.295 193.908ZM708.963 192.9C708.944 191.724 708.524 190.781 707.703 190.072C706.881 189.363 705.864 189.008 704.651 189.008C703.549 189.008 702.607 189.363 701.823 190.072C701.039 190.763 700.572 191.705 700.423 192.9H708.963ZM736.156 186.572L731.368 202H728.008L724.9 190.604L721.792 202H718.432L713.616 186.572H716.864L720.084 198.976L723.36 186.572H726.692L729.828 198.92L733.02 186.572H736.156ZM744.141 202.252C742.928 202.252 741.836 202.037 740.865 201.608C739.913 201.16 739.157 200.563 738.597 199.816C738.037 199.051 737.739 198.201 737.701 197.268H741.005C741.061 197.921 741.369 198.472 741.929 198.92C742.508 199.349 743.227 199.564 744.085 199.564C744.981 199.564 745.672 199.396 746.157 199.06C746.661 198.705 746.913 198.257 746.913 197.716C746.913 197.137 746.633 196.708 746.073 196.428C745.532 196.148 744.664 195.84 743.469 195.504C742.312 195.187 741.369 194.879 740.641 194.58C739.913 194.281 739.279 193.824 738.737 193.208C738.215 192.592 737.953 191.78 737.953 190.772C737.953 189.951 738.196 189.204 738.681 188.532C739.167 187.841 739.857 187.3 740.753 186.908C741.668 186.516 742.713 186.32 743.889 186.32C745.644 186.32 747.053 186.768 748.117 187.664C749.2 188.541 749.779 189.745 749.853 191.276H746.661C746.605 190.585 746.325 190.035 745.821 189.624C745.317 189.213 744.636 189.008 743.777 189.008C742.937 189.008 742.293 189.167 741.845 189.484C741.397 189.801 741.173 190.221 741.173 190.744C741.173 191.155 741.323 191.5 741.621 191.78C741.92 192.06 742.284 192.284 742.713 192.452C743.143 192.601 743.777 192.797 744.617 193.04C745.737 193.339 746.652 193.647 747.361 193.964C748.089 194.263 748.715 194.711 749.237 195.308C749.76 195.905 750.031 196.699 750.049 197.688C750.049 198.565 749.807 199.349 749.321 200.04C748.836 200.731 748.145 201.272 747.249 201.664C746.372 202.056 745.336 202.252 744.141 202.252Z" fill="black"/>
<path d="M321.584 106.512C322.821 105.787 324.059 105.253 325.296 104.912C326.576 104.571 327.856 104.4 329.136 104.4C331.44 104.4 333.531 104.912 335.408 105.936C337.328 106.917 338.864 108.389 340.016 110.352C341.168 112.272 341.744 114.597 341.744 117.328C341.744 121.851 340.336 125.307 337.52 127.696C334.747 130.043 330.928 131.216 326.064 131.216C323.675 131.216 321.307 130.789 318.96 129.936C316.656 129.04 314.565 127.76 312.688 126.096L317.232 121.296C318.683 122.491 320.197 123.408 321.776 124.048C323.397 124.688 324.933 125.008 326.384 125.008C329.072 125.008 331.099 124.368 332.464 123.088C333.829 121.765 334.512 119.931 334.512 117.584C334.512 116.048 334.171 114.747 333.488 113.68C332.805 112.571 331.888 111.739 330.736 111.184C329.584 110.629 328.347 110.352 327.024 110.352C325.701 110.352 324.336 110.672 322.928 111.312C321.52 111.909 320.219 112.869 319.024 114.192L314.608 112.144V92.304H338.608V98.768H321.584V106.512ZM363.267 91.024C365.571 91.024 367.683 91.344 369.603 91.984C371.566 92.624 373.294 93.712 374.787 95.248C376.28 96.7413 377.432 98.7893 378.243 101.392C379.054 103.995 379.459 107.259 379.459 111.184C379.459 115.067 379.054 118.309 378.243 120.912C377.432 123.515 376.28 125.584 374.787 127.12C373.294 128.613 371.566 129.68 369.603 130.32C367.683 130.96 365.571 131.28 363.267 131.28C360.963 131.28 358.83 130.96 356.867 130.32C354.904 129.68 353.176 128.613 351.683 127.12C350.232 125.584 349.102 123.515 348.291 120.912C347.48 118.309 347.075 115.067 347.075 111.184C347.075 107.259 347.48 103.995 348.291 101.392C349.102 98.7893 350.232 96.7413 351.683 95.248C353.176 93.712 354.904 92.624 356.867 91.984C358.83 91.344 360.963 91.024 363.267 91.024ZM363.267 97.68C362.158 97.68 361.091 97.8507 360.067 98.192C359.086 98.4907 358.19 99.1093 357.379 100.048C356.611 100.944 355.992 102.288 355.523 104.08C355.096 105.872 354.883 108.24 354.883 111.184C354.883 114.085 355.096 116.432 355.523 118.224C355.992 119.973 356.611 121.317 357.379 122.256C358.19 123.195 359.086 123.835 360.067 124.176C361.091 124.475 362.158 124.624 363.267 124.624C364.376 124.624 365.422 124.475 366.403 124.176C367.427 123.835 368.344 123.195 369.155 122.256C369.966 121.317 370.584 119.973 371.011 118.224C371.48 116.432 371.715 114.085 371.715 111.184C371.715 108.24 371.48 105.872 371.011 104.08C370.584 102.288 369.966 100.944 369.155 100.048C368.344 99.1093 367.427 98.4907 366.403 98.192C365.422 97.8507 364.376 97.68 363.267 97.68ZM402.08 91.024C404.384 91.024 406.496 91.344 408.416 91.984C410.378 92.624 412.106 93.712 413.6 95.248C415.093 96.7413 416.245 98.7893 417.056 101.392C417.866 103.995 418.272 107.259 418.272 111.184C418.272 115.067 417.866 118.309 417.056 120.912C416.245 123.515 415.093 125.584 413.6 127.12C412.106 128.613 410.378 129.68 408.416 130.32C406.496 130.96 404.384 131.28 402.08 131.28C399.776 131.28 397.642 130.96 395.68 130.32C393.717 129.68 391.989 128.613 390.496 127.12C389.045 125.584 387.914 123.515 387.104 120.912C386.293 118.309 385.888 115.067 385.888 111.184C385.888 107.259 386.293 103.995 387.104 101.392C387.914 98.7893 389.045 96.7413 390.496 95.248C391.989 93.712 393.717 92.624 395.68 91.984C397.642 91.344 399.776 91.024 402.08 91.024ZM402.08 97.68C400.97 97.68 399.904 97.8507 398.88 98.192C397.898 98.4907 397.002 99.1093 396.192 100.048C395.424 100.944 394.805 102.288 394.336 104.08C393.909 105.872 393.696 108.24 393.696 111.184C393.696 114.085 393.909 116.432 394.336 118.224C394.805 119.973 395.424 121.317 396.192 122.256C397.002 123.195 397.898 123.835 398.88 124.176C399.904 124.475 400.97 124.624 402.08 124.624C403.189 124.624 404.234 124.475 405.216 124.176C406.24 123.835 407.157 123.195 407.968 122.256C408.778 121.317 409.397 119.973 409.824 118.224C410.293 116.432 410.528 114.085 410.528 111.184C410.528 108.24 410.293 105.872 409.824 104.08C409.397 102.288 408.778 100.944 407.968 100.048C407.157 99.1093 406.24 98.4907 405.216 98.192C404.234 97.8507 403.189 97.68 402.08 97.68ZM440.892 91.024C443.196 91.024 445.308 91.344 447.228 91.984C449.191 92.624 450.919 93.712 452.412 95.248C453.905 96.7413 455.057 98.7893 455.868 101.392C456.679 103.995 457.084 107.259 457.084 111.184C457.084 115.067 456.679 118.309 455.868 120.912C455.057 123.515 453.905 125.584 452.412 127.12C450.919 128.613 449.191 129.68 447.228 130.32C445.308 130.96 443.196 131.28 440.892 131.28C438.588 131.28 436.455 130.96 434.492 130.32C432.529 129.68 430.801 128.613 429.308 127.12C427.857 125.584 426.727 123.515 425.916 120.912C425.105 118.309 424.7 115.067 424.7 111.184C424.7 107.259 425.105 103.995 425.916 101.392C426.727 98.7893 427.857 96.7413 429.308 95.248C430.801 93.712 432.529 92.624 434.492 91.984C436.455 91.344 438.588 91.024 440.892 91.024ZM440.892 97.68C439.783 97.68 438.716 97.8507 437.692 98.192C436.711 98.4907 435.815 99.1093 435.004 100.048C434.236 100.944 433.617 102.288 433.148 104.08C432.721 105.872 432.508 108.24 432.508 111.184C432.508 114.085 432.721 116.432 433.148 118.224C433.617 119.973 434.236 121.317 435.004 122.256C435.815 123.195 436.711 123.835 437.692 124.176C438.716 124.475 439.783 124.624 440.892 124.624C442.001 124.624 443.047 124.475 444.028 124.176C445.052 123.835 445.969 123.195 446.78 122.256C447.591 121.317 448.209 119.973 448.636 118.224C449.105 116.432 449.34 114.085 449.34 111.184C449.34 108.24 449.105 105.872 448.636 104.08C448.209 102.288 447.591 100.944 446.78 100.048C445.969 99.1093 445.052 98.4907 444.028 98.192C443.047 97.8507 442.001 97.68 440.892 97.68ZM472.793 98H479.513V107.344H488.793V113.424H479.513V122.704H472.793V113.424H463.513V107.344H472.793V98Z" fill="black"/>
<path d="M326.708 188.336C326.708 189.325 326.475 190.259 326.008 191.136C325.541 192.013 324.795 192.732 323.768 193.292C322.741 193.833 321.425 194.104 319.82 194.104H316.292V202H313.1V182.54H319.82C321.313 182.54 322.573 182.801 323.6 183.324C324.645 183.828 325.42 184.519 325.924 185.396C326.447 186.273 326.708 187.253 326.708 188.336ZM319.82 191.5C321.033 191.5 321.939 191.229 322.536 190.688C323.133 190.128 323.432 189.344 323.432 188.336C323.432 186.208 322.228 185.144 319.82 185.144H316.292V191.5H319.82ZM332.944 188.812C333.411 188.028 334.027 187.421 334.792 186.992C335.576 186.544 336.5 186.32 337.564 186.32V189.624H336.752C335.502 189.624 334.55 189.941 333.896 190.576C333.262 191.211 332.944 192.312 332.944 193.88V202H329.752V186.572H332.944V188.812ZM347.19 202.252C345.734 202.252 344.418 201.925 343.242 201.272C342.066 200.6 341.142 199.667 340.47 198.472C339.798 197.259 339.462 195.859 339.462 194.272C339.462 192.704 339.808 191.313 340.498 190.1C341.189 188.887 342.132 187.953 343.326 187.3C344.521 186.647 345.856 186.32 347.33 186.32C348.805 186.32 350.14 186.647 351.334 187.3C352.529 187.953 353.472 188.887 354.162 190.1C354.853 191.313 355.198 192.704 355.198 194.272C355.198 195.84 354.844 197.231 354.134 198.444C353.425 199.657 352.454 200.6 351.222 201.272C350.009 201.925 348.665 202.252 347.19 202.252ZM347.19 199.48C348.012 199.48 348.777 199.284 349.486 198.892C350.214 198.5 350.802 197.912 351.25 197.128C351.698 196.344 351.922 195.392 351.922 194.272C351.922 193.152 351.708 192.209 351.278 191.444C350.849 190.66 350.28 190.072 349.57 189.68C348.861 189.288 348.096 189.092 347.274 189.092C346.453 189.092 345.688 189.288 344.978 189.68C344.288 190.072 343.737 190.66 343.326 191.444C342.916 192.209 342.71 193.152 342.71 194.272C342.71 195.933 343.13 197.221 343.97 198.136C344.829 199.032 345.902 199.48 347.19 199.48ZM357.29 194.216C357.29 192.667 357.607 191.295 358.242 190.1C358.895 188.905 359.773 187.981 360.874 187.328C361.994 186.656 363.235 186.32 364.598 186.32C365.606 186.32 366.595 186.544 367.566 186.992C368.555 187.421 369.339 188 369.918 188.728V181.28H373.138V202H369.918V199.676C369.395 200.423 368.667 201.039 367.734 201.524C366.819 202.009 365.765 202.252 364.57 202.252C363.226 202.252 361.994 201.916 360.874 201.244C359.773 200.553 358.895 199.601 358.242 198.388C357.607 197.156 357.29 195.765 357.29 194.216ZM369.918 194.272C369.918 193.208 369.694 192.284 369.246 191.5C368.817 190.716 368.247 190.119 367.538 189.708C366.829 189.297 366.063 189.092 365.242 189.092C364.421 189.092 363.655 189.297 362.946 189.708C362.237 190.1 361.658 190.688 361.21 191.472C360.781 192.237 360.566 193.152 360.566 194.216C360.566 195.28 360.781 196.213 361.21 197.016C361.658 197.819 362.237 198.435 362.946 198.864C363.674 199.275 364.439 199.48 365.242 199.48C366.063 199.48 366.829 199.275 367.538 198.864C368.247 198.453 368.817 197.856 369.246 197.072C369.694 196.269 369.918 195.336 369.918 194.272ZM391.302 186.572V202H388.11V200.18C387.606 200.815 386.944 201.319 386.122 201.692C385.32 202.047 384.461 202.224 383.546 202.224C382.333 202.224 381.241 201.972 380.27 201.468C379.318 200.964 378.562 200.217 378.002 199.228C377.461 198.239 377.19 197.044 377.19 195.644V186.572H380.354V195.168C380.354 196.549 380.7 197.613 381.39 198.36C382.081 199.088 383.024 199.452 384.218 199.452C385.413 199.452 386.356 199.088 387.046 198.36C387.756 197.613 388.11 196.549 388.11 195.168V186.572H391.302ZM394.45 194.272C394.45 192.685 394.767 191.295 395.402 190.1C396.055 188.887 396.951 187.953 398.09 187.3C399.229 186.647 400.535 186.32 402.01 186.32C403.877 186.32 405.417 186.768 406.63 187.664C407.862 188.541 408.693 189.801 409.122 191.444H405.678C405.398 190.679 404.95 190.081 404.334 189.652C403.718 189.223 402.943 189.008 402.01 189.008C400.703 189.008 399.658 189.475 398.874 190.408C398.109 191.323 397.726 192.611 397.726 194.272C397.726 195.933 398.109 197.231 398.874 198.164C399.658 199.097 400.703 199.564 402.01 199.564C403.858 199.564 405.081 198.752 405.678 197.128H409.122C408.674 198.696 407.834 199.947 406.602 200.88C405.37 201.795 403.839 202.252 402.01 202.252C400.535 202.252 399.229 201.925 398.09 201.272C396.951 200.6 396.055 199.667 395.402 198.472C394.767 197.259 394.45 195.859 394.45 194.272ZM416.027 189.176V197.716C416.027 198.295 416.158 198.715 416.419 198.976C416.699 199.219 417.166 199.34 417.819 199.34H419.779V202H417.259C415.822 202 414.72 201.664 413.955 200.992C413.19 200.32 412.807 199.228 412.807 197.716V189.176H410.987V186.572H412.807V182.736H416.027V186.572H419.779V189.176H416.027ZM436.407 202.196C435.1 202.196 433.924 201.972 432.879 201.524C431.833 201.057 431.012 200.404 430.415 199.564C429.817 198.724 429.519 197.744 429.519 196.624H432.935C433.009 197.464 433.336 198.155 433.915 198.696C434.512 199.237 435.343 199.508 436.407 199.508C437.508 199.508 438.367 199.247 438.983 198.724C439.599 198.183 439.907 197.492 439.907 196.652C439.907 195.999 439.711 195.467 439.319 195.056C438.945 194.645 438.469 194.328 437.891 194.104C437.331 193.88 436.547 193.637 435.539 193.376C434.269 193.04 433.233 192.704 432.431 192.368C431.647 192.013 430.975 191.472 430.415 190.744C429.855 190.016 429.575 189.045 429.575 187.832C429.575 186.712 429.855 185.732 430.415 184.892C430.975 184.052 431.759 183.408 432.767 182.96C433.775 182.512 434.941 182.288 436.267 182.288C438.152 182.288 439.692 182.764 440.887 183.716C442.1 184.649 442.772 185.937 442.903 187.58H439.375C439.319 186.871 438.983 186.264 438.367 185.76C437.751 185.256 436.939 185.004 435.931 185.004C435.016 185.004 434.269 185.237 433.691 185.704C433.112 186.171 432.823 186.843 432.823 187.72C432.823 188.317 433 188.812 433.355 189.204C433.728 189.577 434.195 189.876 434.755 190.1C435.315 190.324 436.08 190.567 437.051 190.828C438.339 191.183 439.384 191.537 440.187 191.892C441.008 192.247 441.699 192.797 442.259 193.544C442.837 194.272 443.127 195.252 443.127 196.484C443.127 197.473 442.856 198.407 442.315 199.284C441.792 200.161 441.017 200.871 439.991 201.412C438.983 201.935 437.788 202.196 436.407 202.196ZM453.585 202.252C452.129 202.252 450.813 201.925 449.637 201.272C448.461 200.6 447.537 199.667 446.865 198.472C446.193 197.259 445.857 195.859 445.857 194.272C445.857 192.704 446.202 191.313 446.893 190.1C447.584 188.887 448.526 187.953 449.721 187.3C450.916 186.647 452.25 186.32 453.725 186.32C455.2 186.32 456.534 186.647 457.729 187.3C458.924 187.953 459.866 188.887 460.557 190.1C461.248 191.313 461.593 192.704 461.593 194.272C461.593 195.84 461.238 197.231 460.529 198.444C459.82 199.657 458.849 200.6 457.617 201.272C456.404 201.925 455.06 202.252 453.585 202.252ZM453.585 199.48C454.406 199.48 455.172 199.284 455.881 198.892C456.609 198.5 457.197 197.912 457.645 197.128C458.093 196.344 458.317 195.392 458.317 194.272C458.317 193.152 458.102 192.209 457.673 191.444C457.244 190.66 456.674 190.072 455.965 189.68C455.256 189.288 454.49 189.092 453.669 189.092C452.848 189.092 452.082 189.288 451.373 189.68C450.682 190.072 450.132 190.66 449.721 191.444C449.31 192.209 449.105 193.152 449.105 194.272C449.105 195.933 449.525 197.221 450.365 198.136C451.224 199.032 452.297 199.48 453.585 199.48ZM467.94 181.28V202H464.748V181.28H467.94ZM471.067 194.216C471.067 192.667 471.385 191.295 472.019 190.1C472.673 188.905 473.55 187.981 474.651 187.328C475.771 186.656 477.013 186.32 478.375 186.32C479.383 186.32 480.373 186.544 481.343 186.992C482.333 187.421 483.117 188 483.695 188.728V181.28H486.915V202H483.695V199.676C483.173 200.423 482.445 201.039 481.511 201.524C480.597 202.009 479.542 202.252 478.347 202.252C477.003 202.252 475.771 201.916 474.651 201.244C473.55 200.553 472.673 199.601 472.019 198.388C471.385 197.156 471.067 195.765 471.067 194.216ZM483.695 194.272C483.695 193.208 483.471 192.284 483.023 191.5C482.594 190.716 482.025 190.119 481.315 189.708C480.606 189.297 479.841 189.092 479.019 189.092C478.198 189.092 477.433 189.297 476.723 189.708C476.014 190.1 475.435 190.688 474.987 191.472C474.558 192.237 474.343 193.152 474.343 194.216C474.343 195.28 474.558 196.213 474.987 197.016C475.435 197.819 476.014 198.435 476.723 198.864C477.451 199.275 478.217 199.48 479.019 199.48C479.841 199.48 480.606 199.275 481.315 198.864C482.025 198.453 482.594 197.856 483.023 197.072C483.471 196.269 483.695 195.336 483.695 194.272Z" fill="black"/>
<path d="M84.776 131L83.112 125.624C85.8427 123.064 88.5093 120.611 91.112 118.264C93.7147 115.917 96.168 113.635 98.472 111.416C99.9227 110.008 101.011 108.664 101.736 107.384C102.504 106.104 102.888 104.803 102.888 103.48C102.888 101.944 102.355 100.728 101.288 99.832C100.264 98.8933 98.8133 98.424 96.936 98.424C95.3573 98.424 93.736 98.8293 92.072 99.64C90.408 100.408 88.936 101.453 87.656 102.776L83.176 98.104C85.48 95.928 87.7627 94.3707 90.024 93.432C92.328 92.4507 94.824 91.96 97.512 91.96C100.029 91.96 102.291 92.4507 104.296 93.432C106.301 94.3707 107.859 95.7147 108.968 97.464C110.12 99.1707 110.696 101.197 110.696 103.544C110.696 105.549 109.971 107.533 108.52 109.496C107.069 111.459 105.192 113.443 102.888 115.448C101.224 116.941 99.5173 118.456 97.768 119.992C96.0187 121.485 94.2693 123 92.52 124.536H105.576L108.712 119.736L114.088 122.808L109.16 131H84.776ZM134.58 92.024C136.884 92.024 138.996 92.344 140.916 92.984C142.878 93.624 144.606 94.712 146.1 96.248C147.593 97.7413 148.745 99.7893 149.556 102.392C150.366 104.995 150.772 108.259 150.772 112.184C150.772 116.067 150.366 119.309 149.556 121.912C148.745 124.515 147.593 126.584 146.1 128.12C144.606 129.613 142.878 130.68 140.916 131.32C138.996 131.96 136.884 132.28 134.58 132.28C132.276 132.28 130.142 131.96 128.18 131.32C126.217 130.68 124.489 129.613 122.996 128.12C121.545 126.584 120.414 124.515 119.604 121.912C118.793 119.309 118.388 116.067 118.388 112.184C118.388 108.259 118.793 104.995 119.604 102.392C120.414 99.7893 121.545 97.7413 122.996 96.248C124.489 94.712 126.217 93.624 128.18 92.984C130.142 92.344 132.276 92.024 134.58 92.024ZM134.58 98.68C133.47 98.68 132.404 98.8507 131.38 99.192C130.398 99.4907 129.502 100.109 128.692 101.048C127.924 101.944 127.305 103.288 126.836 105.08C126.409 106.872 126.196 109.24 126.196 112.184C126.196 115.085 126.409 117.432 126.836 119.224C127.305 120.973 127.924 122.317 128.692 123.256C129.502 124.195 130.398 124.835 131.38 125.176C132.404 125.475 133.47 125.624 134.58 125.624C135.689 125.624 136.734 125.475 137.716 125.176C138.74 124.835 139.657 124.195 140.468 123.256C141.278 122.317 141.897 120.973 142.324 119.224C142.793 117.432 143.028 115.085 143.028 112.184C143.028 109.24 142.793 106.872 142.324 105.08C141.897 103.288 141.278 101.944 140.468 101.048C139.657 100.109 138.74 99.4907 137.716 99.192C136.734 98.8507 135.689 98.68 134.58 98.68ZM169.564 92.28H174.364V124.536H183.964V131H156.764V124.536H166.94V103.224L159.388 109.496L155.164 104.248L169.564 92.28ZM203.83 92.024C206.134 92.024 208.246 92.344 210.166 92.984C212.128 93.624 213.856 94.712 215.35 96.248C216.843 97.7413 217.995 99.7893 218.806 102.392C219.616 104.995 220.022 108.259 220.022 112.184C220.022 116.067 219.616 119.309 218.806 121.912C217.995 124.515 216.843 126.584 215.35 128.12C213.856 129.613 212.128 130.68 210.166 131.32C208.246 131.96 206.134 132.28 203.83 132.28C201.526 132.28 199.392 131.96 197.43 131.32C195.467 130.68 193.739 129.613 192.246 128.12C190.795 126.584 189.664 124.515 188.854 121.912C188.043 119.309 187.638 116.067 187.638 112.184C187.638 108.259 188.043 104.995 188.854 102.392C189.664 99.7893 190.795 97.7413 192.246 96.248C193.739 94.712 195.467 93.624 197.43 92.984C199.392 92.344 201.526 92.024 203.83 92.024ZM203.83 98.68C202.72 98.68 201.654 98.8507 200.63 99.192C199.648 99.4907 198.752 100.109 197.942 101.048C197.174 101.944 196.555 103.288 196.086 105.08C195.659 106.872 195.446 109.24 195.446 112.184C195.446 115.085 195.659 117.432 196.086 119.224C196.555 120.973 197.174 122.317 197.942 123.256C198.752 124.195 199.648 124.835 200.63 125.176C201.654 125.475 202.72 125.624 203.83 125.624C204.939 125.624 205.984 125.475 206.966 125.176C207.99 124.835 208.907 124.195 209.718 123.256C210.528 122.317 211.147 120.973 211.574 119.224C212.043 117.432 212.278 115.085 212.278 112.184C212.278 109.24 212.043 106.872 211.574 105.08C211.147 103.288 210.528 101.944 209.718 101.048C208.907 100.109 207.99 99.4907 206.966 99.192C205.984 98.8507 204.939 98.68 203.83 98.68Z" fill="black"/>
<path d="M103.552 180.54V183.144H95.292V188.884H101.732V191.488H95.292V200H92.1V180.54H103.552ZM113.202 200.252C111.746 200.252 110.43 199.925 109.254 199.272C108.078 198.6 107.154 197.667 106.482 196.472C105.81 195.259 105.474 193.859 105.474 192.272C105.474 190.704 105.819 189.313 106.51 188.1C107.201 186.887 108.143 185.953 109.338 185.3C110.533 184.647 111.867 184.32 113.342 184.32C114.817 184.32 116.151 184.647 117.346 185.3C118.541 185.953 119.483 186.887 120.174 188.1C120.865 189.313 121.21 190.704 121.21 192.272C121.21 193.84 120.855 195.231 120.146 196.444C119.437 197.657 118.466 198.6 117.234 199.272C116.021 199.925 114.677 200.252 113.202 200.252ZM113.202 197.48C114.023 197.48 114.789 197.284 115.498 196.892C116.226 196.5 116.814 195.912 117.262 195.128C117.71 194.344 117.934 193.392 117.934 192.272C117.934 191.152 117.719 190.209 117.29 189.444C116.861 188.66 116.291 188.072 115.582 187.68C114.873 187.288 114.107 187.092 113.286 187.092C112.465 187.092 111.699 187.288 110.99 187.68C110.299 188.072 109.749 188.66 109.338 189.444C108.927 190.209 108.722 191.152 108.722 192.272C108.722 193.933 109.142 195.221 109.982 196.136C110.841 197.032 111.914 197.48 113.202 197.48ZM138.338 184.572V200H135.146V198.18C134.642 198.815 133.979 199.319 133.158 199.692C132.355 200.047 131.496 200.224 130.582 200.224C129.368 200.224 128.276 199.972 127.306 199.468C126.354 198.964 125.598 198.217 125.038 197.228C124.496 196.239 124.226 195.044 124.226 193.644V184.572H127.39V193.168C127.39 194.549 127.735 195.613 128.426 196.36C129.116 197.088 130.059 197.452 131.254 197.452C132.448 197.452 133.391 197.088 134.082 196.36C134.791 195.613 135.146 194.549 135.146 193.168V184.572H138.338ZM150.333 184.32C151.547 184.32 152.629 184.572 153.581 185.076C154.552 185.58 155.308 186.327 155.849 187.316C156.391 188.305 156.661 189.5 156.661 190.9V200H153.497V191.376C153.497 189.995 153.152 188.94 152.461 188.212C151.771 187.465 150.828 187.092 149.633 187.092C148.439 187.092 147.487 187.465 146.777 188.212C146.087 188.94 145.741 189.995 145.741 191.376V200H142.549V184.572H145.741V186.336C146.264 185.701 146.927 185.207 147.729 184.852C148.551 184.497 149.419 184.32 150.333 184.32ZM159.669 192.216C159.669 190.667 159.986 189.295 160.621 188.1C161.274 186.905 162.151 185.981 163.253 185.328C164.373 184.656 165.614 184.32 166.977 184.32C167.985 184.32 168.974 184.544 169.945 184.992C170.934 185.421 171.718 186 172.297 186.728V179.28H175.517V200H172.297V197.676C171.774 198.423 171.046 199.039 170.113 199.524C169.198 200.009 168.143 200.252 166.949 200.252C165.605 200.252 164.373 199.916 163.253 199.244C162.151 198.553 161.274 197.601 160.621 196.388C159.986 195.156 159.669 193.765 159.669 192.216ZM172.297 192.272C172.297 191.208 172.073 190.284 171.625 189.5C171.195 188.716 170.626 188.119 169.917 187.708C169.207 187.297 168.442 187.092 167.621 187.092C166.799 187.092 166.034 187.297 165.325 187.708C164.615 188.1 164.037 188.688 163.589 189.472C163.159 190.237 162.945 191.152 162.945 192.216C162.945 193.28 163.159 194.213 163.589 195.016C164.037 195.819 164.615 196.435 165.325 196.864C166.053 197.275 166.818 197.48 167.621 197.48C168.442 197.48 169.207 197.275 169.917 196.864C170.626 196.453 171.195 195.856 171.625 195.072C172.073 194.269 172.297 193.336 172.297 192.272ZM193.849 191.908C193.849 192.487 193.812 193.009 193.737 193.476H181.949C182.043 194.708 182.5 195.697 183.321 196.444C184.143 197.191 185.151 197.564 186.345 197.564C188.063 197.564 189.276 196.845 189.985 195.408H193.429C192.963 196.827 192.113 197.993 190.881 198.908C189.668 199.804 188.156 200.252 186.345 200.252C184.871 200.252 183.545 199.925 182.369 199.272C181.212 198.6 180.297 197.667 179.625 196.472C178.972 195.259 178.645 193.859 178.645 192.272C178.645 190.685 178.963 189.295 179.597 188.1C180.251 186.887 181.156 185.953 182.313 185.3C183.489 184.647 184.833 184.32 186.345 184.32C187.801 184.32 189.099 184.637 190.237 185.272C191.376 185.907 192.263 186.803 192.897 187.96C193.532 189.099 193.849 190.415 193.849 191.908ZM190.517 190.9C190.499 189.724 190.079 188.781 189.257 188.072C188.436 187.363 187.419 187.008 186.205 187.008C185.104 187.008 184.161 187.363 183.377 188.072C182.593 188.763 182.127 189.705 181.977 190.9H190.517ZM195.927 192.216C195.927 190.667 196.244 189.295 196.879 188.1C197.532 186.905 198.409 185.981 199.511 185.328C200.631 184.656 201.872 184.32 203.235 184.32C204.243 184.32 205.232 184.544 206.203 184.992C207.192 185.421 207.976 186 208.555 186.728V179.28H211.775V200H208.555V197.676C208.032 198.423 207.304 199.039 206.371 199.524C205.456 200.009 204.401 200.252 203.207 200.252C201.863 200.252 200.631 199.916 199.511 199.244C198.409 198.553 197.532 197.601 196.879 196.388C196.244 195.156 195.927 193.765 195.927 192.216ZM208.555 192.272C208.555 191.208 208.331 190.284 207.883 189.5C207.453 188.716 206.884 188.119 206.175 187.708C205.465 187.297 204.7 187.092 203.879 187.092C203.057 187.092 202.292 187.297 201.583 187.708C200.873 188.1 200.295 188.688 199.847 189.472C199.417 190.237 199.203 191.152 199.203 192.216C199.203 193.28 199.417 194.213 199.847 195.016C200.295 195.819 200.873 196.435 201.583 196.864C202.311 197.275 203.076 197.48 203.879 197.48C204.7 197.48 205.465 197.275 206.175 196.864C206.884 196.453 207.453 195.856 207.883 195.072C208.331 194.269 208.555 193.336 208.555 192.272Z" fill="black"/>
<line x1="251.5" y1="70" x2="251.5" y2="213" stroke="black"/>
<line x1="536.5" y1="72" x2="536.5" y2="215" stroke="black"/>
<defs>
<filter id="filter0_dif_1_625" x="0" y="0" width="805" height="292" filterUnits="userSpaceOnUse" color-interpolation-filters="sRGB">
<feFlood flood-opacity="0" result="BackgroundImageFix"/>
<feColorMatrix in="SourceAlpha" type="matrix" values="0 0 0 0 0 0 0 0 0 0 0 0 0 0 0 0 0 0 127 0" result="hardAlpha"/>
<feOffset dx="4" dy="4"/>
<feGaussianBlur stdDeviation="2"/>
<feComposite in2="hardAlpha" operator="out"/>
<feColorMatrix type="matrix" values="0 0 0 0 0 0 0 0 0 0 0 0 0 0 0 0 0 0 0.25 0"/>
<feBlend mode="normal" in2="BackgroundImageFix" result="effect1_dropShadow_1_625"/>
<feBlend mode="normal" in="SourceGraphic" in2="effect1_dropShadow_1_625" result="shape"/>
<feColorMatrix in="SourceAlpha" type="matrix" values="0 0 0 0 0 0 0 0 0 0 0 0 0 0 0 0 0 0 127 0" result="hardAlpha"/>
<feOffset dx="4" dy="4"/>
<feGaussianBlur stdDeviation="2"/>
<feComposite in2="hardAlpha" operator="arithmetic" k2="-1" k3="1"/>
<feColorMatrix type="matrix" values="0 0 0 0 0 0 0 0 0 0 0 0 0 0 0 0 0 0 0.25 0"/>
<feBlend mode="normal" in2="shape" result="effect2_innerShadow_1_625"/>
<feGaussianBlur stdDeviation="2" result="effect3_foregroundBlur_1_625"/>
</filter>
<linearGradient id="paint0_linear_1_625" x1="4.00001" y1="272" x2="764" y2="24.0001" gradientUnits="userSpaceOnUse">
<stop stop-color="#CD8922"/>
<stop offset="1" stop-color="#FFB84F" stop-opacity="0.45"/>
</linearGradient>
</defs>
</svg>
