<svg width="129" height="65" viewBox="0 0 129 65" fill="none" xmlns="http://www.w3.org/2000/svg">
<g filter="url(#filter0_di_1_462)">
<rect x="4" width="121" height="57" rx="10" fill="url(#paint0_linear_1_462)" shape-rendering="crispEdges"/>
</g>
<path d="M26.44 37.168C25.272 37.168 24.216 36.968 23.272 36.568C22.344 36.168 21.608 35.592 21.064 34.84C20.52 34.088 20.24 33.2 20.224 32.176H23.824C23.872 32.864 24.112 33.408 24.544 33.808C24.992 34.208 25.6 34.408 26.368 34.408C27.152 34.408 27.768 34.224 28.216 33.856C28.664 33.472 28.888 32.976 28.888 32.368C28.888 31.872 28.736 31.464 28.432 31.144C28.128 30.824 27.744 30.576 27.28 30.4C26.832 30.208 26.208 30 25.408 29.776C24.32 29.456 23.432 29.144 22.744 28.84C22.072 28.52 21.488 28.048 20.992 27.424C20.512 26.784 20.272 25.936 20.272 24.88C20.272 23.888 20.52 23.024 21.016 22.288C21.512 21.552 22.208 20.992 23.104 20.608C24 20.208 25.024 20.008 26.176 20.008C27.904 20.008 29.304 20.432 30.376 21.28C31.464 22.112 32.064 23.28 32.176 24.784H28.48C28.448 24.208 28.2 23.736 27.736 23.368C27.288 22.984 26.688 22.792 25.936 22.792C25.28 22.792 24.752 22.96 24.352 23.296C23.968 23.632 23.776 24.12 23.776 24.76C23.776 25.208 23.92 25.584 24.208 25.888C24.512 26.176 24.88 26.416 25.312 26.608C25.76 26.784 26.384 26.992 27.184 27.232C28.272 27.552 29.16 27.872 29.848 28.192C30.536 28.512 31.128 28.992 31.624 29.632C32.12 30.272 32.368 31.112 32.368 32.152C32.368 33.048 32.136 33.88 31.672 34.648C31.208 35.416 30.528 36.032 29.632 36.496C28.736 36.944 27.672 37.168 26.44 37.168ZM36.985 22.12C36.393 22.12 35.897 21.936 35.497 21.568C35.113 21.184 34.921 20.712 34.921 20.152C34.921 19.592 35.113 19.128 35.497 18.76C35.897 18.376 36.393 18.184 36.985 18.184C37.577 18.184 38.065 18.376 38.449 18.76C38.849 19.128 39.049 19.592 39.049 20.152C39.049 20.712 38.849 21.184 38.449 21.568C38.065 21.936 37.577 22.12 36.985 22.12ZM38.641 23.704V37H35.281V23.704H38.641ZM47.1687 23.488C48.1607 23.488 49.0327 23.688 49.7847 24.088C50.5367 24.472 51.1287 24.976 51.5607 25.6V23.704H54.9447V37.096C54.9447 38.328 54.6967 39.424 54.2007 40.384C53.7047 41.36 52.9607 42.128 51.9687 42.688C50.9767 43.264 49.7767 43.552 48.3687 43.552C46.4807 43.552 44.9287 43.112 43.7127 42.232C42.5127 41.352 41.8327 40.152 41.6727 38.632H45.0087C45.1847 39.24 45.5607 39.72 46.1367 40.072C46.7287 40.44 47.4407 40.624 48.2727 40.624C49.2487 40.624 50.0407 40.328 50.6487 39.736C51.2567 39.16 51.5607 38.28 51.5607 37.096V35.032C51.1287 35.656 50.5287 36.176 49.7607 36.592C49.0087 37.008 48.1447 37.216 47.1687 37.216C46.0487 37.216 45.0247 36.928 44.0967 36.352C43.1687 35.776 42.4327 34.968 41.8887 33.928C41.3607 32.872 41.0967 31.664 41.0967 30.304C41.0967 28.96 41.3607 27.768 41.8887 26.728C42.4327 25.688 43.1607 24.888 44.0727 24.328C45.0007 23.768 46.0327 23.488 47.1687 23.488ZM51.5607 30.352C51.5607 29.536 51.4007 28.84 51.0807 28.264C50.7607 27.672 50.3287 27.224 49.7847 26.92C49.2407 26.6 48.6567 26.44 48.0327 26.44C47.4087 26.44 46.8327 26.592 46.3047 26.896C45.7767 27.2 45.3447 27.648 45.0087 28.24C44.6887 28.816 44.5287 29.504 44.5287 30.304C44.5287 31.104 44.6887 31.808 45.0087 32.416C45.3447 33.008 45.7767 33.464 46.3047 33.784C46.8487 34.104 47.4247 34.264 48.0327 34.264C48.6567 34.264 49.2407 34.112 49.7847 33.808C50.3287 33.488 50.7607 33.04 51.0807 32.464C51.4007 31.872 51.5607 31.168 51.5607 30.352ZM65.5943 23.512C67.1783 23.512 68.4583 24.016 69.4343 25.024C70.4103 26.016 70.8983 27.408 70.8983 29.2V37H67.5383V29.656C67.5383 28.6 67.2743 27.792 66.7463 27.232C66.2183 26.656 65.4983 26.368 64.5863 26.368C63.6583 26.368 62.9223 26.656 62.3783 27.232C61.8503 27.792 61.5863 28.6 61.5863 29.656V37H58.2263V23.704H61.5863V25.36C62.0343 24.784 62.6023 24.336 63.2903 24.016C63.9943 23.68 64.7623 23.512 65.5943 23.512ZM92.3643 23.704V37H88.9803V35.32C88.5483 35.896 87.9803 36.352 87.2763 36.688C86.5883 37.008 85.8363 37.168 85.0203 37.168C83.9803 37.168 83.0603 36.952 82.2603 36.52C81.4603 36.072 80.8283 35.424 80.3643 34.576C79.9163 33.712 79.6923 32.688 79.6923 31.504V23.704H83.0523V31.024C83.0523 32.08 83.3163 32.896 83.8443 33.472C84.3723 34.032 85.0923 34.312 86.0043 34.312C86.9323 34.312 87.6603 34.032 88.1883 33.472C88.7163 32.896 88.9803 32.08 88.9803 31.024V23.704H92.3643ZM99.0394 25.624C99.4714 25.016 100.063 24.512 100.815 24.112C101.583 23.696 102.455 23.488 103.431 23.488C104.567 23.488 105.591 23.768 106.503 24.328C107.431 24.888 108.159 25.688 108.687 26.728C109.231 27.752 109.503 28.944 109.503 30.304C109.503 31.664 109.231 32.872 108.687 33.928C108.159 34.968 107.431 35.776 106.503 36.352C105.591 36.928 104.567 37.216 103.431 37.216C102.455 37.216 101.591 37.016 100.839 36.616C100.103 36.216 99.5034 35.712 99.0394 35.104V43.336H95.6794V23.704H99.0394V25.624ZM106.071 30.304C106.071 29.504 105.903 28.816 105.567 28.24C105.247 27.648 104.815 27.2 104.271 26.896C103.743 26.592 103.167 26.44 102.543 26.44C101.935 26.44 101.359 26.6 100.815 26.92C100.287 27.224 99.8554 27.672 99.5194 28.264C99.1994 28.856 99.0394 29.552 99.0394 30.352C99.0394 31.152 99.1994 31.848 99.5194 32.44C99.8554 33.032 100.287 33.488 100.815 33.808C101.359 34.112 101.935 34.264 102.543 34.264C103.167 34.264 103.743 34.104 104.271 33.784C104.815 33.464 105.247 33.008 105.567 32.416C105.903 31.824 106.071 31.12 106.071 30.304Z" fill="#050505"/>
<defs>
<filter id="filter0_di_1_462" x="0" y="0" width="129" height="65" filterUnits="userSpaceOnUse" color-interpolation-filters="sRGB">
<feFlood flood-opacity="0" result="BackgroundImageFix"/>
<feColorMatrix in="SourceAlpha" type="matrix" values="0 0 0 0 0 0 0 0 0 0 0 0 0 0 0 0 0 0 127 0" result="hardAlpha"/>
<feOffset dy="4"/>
<feGaussianBlur stdDeviation="2"/>
<feComposite in2="hardAlpha" operator="out"/>
<feColorMatrix type="matrix" values="0 0 0 0 0 0 0 0 0 0 0 0 0 0 0 0 0 0 0.25 0"/>
<feBlend mode="normal" in2="BackgroundImageFix" result="effect1_dropShadow_1_462"/>
<feBlend mode="normal" in="SourceGraphic" in2="effect1_dropShadow_1_462" result="shape"/>
<feColorMatrix in="SourceAlpha" type="matrix" values="0 0 0 0 0 0 0 0 0 0 0 0 0 0 0 0 0 0 127 0" result="hardAlpha"/>
<feOffset dx="4" dy="4"/>
<feGaussianBlur stdDeviation="2"/>
<feComposite in2="hardAlpha" operator="arithmetic" k2="-1" k3="1"/>
<feColorMatrix type="matrix" values="0 0 0 0 0.949929 0 0 0 0 0.813768 0 0 0 0 0.609527 0 0 0 1 0"/>
<feBlend mode="normal" in2="shape" result="effect2_innerShadow_1_462"/>
</filter>
<linearGradient id="paint0_linear_1_462" x1="4" y1="57" x2="125" y2="2.9886e-06" gradientUnits="userSpaceOnUse">
<stop stop-color="#FDBB57"/>
<stop offset="1" stop-color="#FBFBFB" stop-opacity="0"/>
</linearGradient>
</defs>
</svg>
